<REAPER_PROJECT 0.1 "5.24/x64" 1493617433
  RIPPLE 0
  GROUPOVERRIDE 0 0 0
  AUTOXFADE 1
  ENVATTACH 1
  MIXERUIFLAGS 11 48
  PEAKGAIN 1
  FEEDBACK 0
  PANLAW 1
  PROJOFFS 0 0
  MAXPROJLEN 0 600
  GRID 3199 8 1 8 1 0 0
  TIMEMODE 1 5 -1 30 0
  VIDEO_CONFIG 0 0 256
  PANMODE 3
  CURSOR 19.03170225439452
  ZOOM 12.85911208940567 0 0
  VZOOMEX 6
  USE_REC_CFG 0
  RECMODE 1
  SMPTESYNC 0 30 100 40 1000 300 0 0 1
  MIDIEDITOR 33949953 0 0
  LOOP 0
  LOOPGRAN 0 4
  RECORD_PATH "" ""
  <RECORD_CFG
  >
  <APPLYFX_CFG
  >
  RENDER_FILE ""
  RENDER_PATTERN ""
  RENDER_FMT 0 2 0
  RENDER_1X 0
  RENDER_RANGE 2 0 0 18 1000
  RENDER_RESAMPLE 3 0 1
  RENDER_ADDTOPROJ 0
  RENDER_STEMS 0
  RENDER_DITHER 0
  TIMELOCKMODE 1
  TEMPOENVLOCKMODE 1
  ITEMMIX 0
  DEFPITCHMODE 589824
  TAKELANE 1
  SAMPLERATE 44100 0 0
  <RENDER_CFG
  >
  LOCK 1
  <METRONOME 6 2
    VOL 0.25 0.125
    FREQ 800 1600 1
    BEATLEN 4
    SAMPLES "" ""
    PATTERN 2863311530 2863311529
  >
  GLOBAL_AUTO -1
  TEMPO 120 4 4
  PLAYRATE 1 0 0.25 4
  SELECTION 0 0
  SELECTION2 0 0
  MASTERAUTOMODE 0
  MASTERTRACKHEIGHT 40
  MASTERPEAKCOL 16576
  MASTERMUTESOLO 0
  MASTERTRACKVIEW 0 0.6667 0.5 0.5 0 0 0
  MASTERHWOUT 0 0 1 0 0 0 0 -1
  MASTER_NCH 2 2
  MASTER_VOLUME 1 0 -1 -1 1
  MASTER_FX 1
  MASTER_SEL 0
  <MASTERPLAYSPEEDENV
    ACT 0
    VIS 0 1 1
    LANEHEIGHT 0 0
    ARM 0
    DEFSHAPE 0 -1 -1
  >
  <TEMPOENVEX
    ACT 1
    VIS 1 0 1
    LANEHEIGHT 0 0
    ARM 0
    DEFSHAPE 1 -1 -1
    PT 0.000000000000 75.0000000000 1
    PT 1.756666666667 75.0000000000 1
    PT 2.028333333333 76.4706257209 1
    PT 2.294775510417 77.9412089461 1
    PT 2.556190495833 79.4118230969 1
    PT 2.813551417708 80.8823727653 1
    PT 3.065460446875 82.3529896194 1
    PT 3.312871015625 83.8235848833 1
    PT 3.555941030208 85.2941510957 1
    PT 3.795553005208 86.7647590470 1
    PT 4.030383369792 88.2352941176 1
    PT 4.261300036458 89.7059439158 1
    PT 4.488431028125 91.1765420992 1
    PT 4.712584078125 92.6470656358 1
    PT 4.932504696875 94.1176470588 1
    PT 5.148989071875 95.5882821511 1
    PT 5.362142813542 97.0589519898 1
    PT 5.572710716667 98.5294479888 1
    PT 15.539274216667 98.5294479888 1
    PT 15.720057732292 96.5572512082 1
    PT 15.904533779167 94.5848591710 1
    PT 16.092856732292 92.6126014880 1
    PT 16.285190169792 90.6401916738 1
    PT 16.481708951042 88.6679415146 1
    PT 16.682598919792 86.6955555523 1
    PT 16.888059279167 84.7232655735 1
    PT 17.098302591667 82.7509733583 1
    PT 17.313556857292 80.7785979797 1
    PT 17.534066997917 78.8062430306 1
    PT 17.760096044792 76.8339298634 1
    PT 17.991927216667 74.8616930221 1
    PT 18.229865997917 72.8893078674 1
    PT 18.474243404167 70.9170400646 1
    PT 18.725417169792 68.9446753453 1
    PT 18.983776497917 66.9723582753 1
    PT 21.895425497917 66.9723582753 1 262146 0 1
    PT 22.791317497917 75.0000000000 1
    PT 23.591317497917 100.0000000000 1 262148 0 1
    PT 49.991317497917 100.0000000000 1 262146 0 1
    PT 51.191317497917 100.0000000000 1 262148 0 1
    PT 53.291317497917 30.0000000000 1
    PT 54.291317497917 100.0000000000 1
    PT 56.691317497917 100.0000000000 1
    PT 57.291317497917 98.9584621855 1
    PT 57.897632497917 97.9166598669 1
    PT 58.510398497917 96.8751311851 1
    PT 59.129752497917 95.8334797456 1
    PT 59.755838497917 94.7916716037 1
    PT 60.388805497917 93.7500000000 1
    PT 61.028805497917 92.7083349429 1
    PT 61.675996497917 91.6667303241 1
    PT 62.330541497917 90.6251321617 1
    PT 62.992609497917 89.5833924335 1
    PT 63.662376497917 88.5416743526 1
    PT 64.340023497917 87.5000364583 1
    PT 65.025737497917 86.4584459094 1
    PT 65.719712497917 85.4166696325 1
    PT 66.422151497917 84.3750131836 1
    PT 67.133262497917 83.3333333333 1
    PT 67.853262497917 82.2917709601 1
    PT 68.582375497917 81.2500592448 1
    PT 69.320836497917 80.2083277633 1
    PT 70.068888497917 79.1667436343 1
    PT 70.826782497917 78.1250000000 1
    PT 71.594782497917 77.0834698353 1
    PT 72.373159497917 76.0417722802 1
    PT 78.389589497917 115.0000287500 1
    PT 79.106980622917 115.0000287500 1
    PT 79.628719622917 115.2950400074 1
    PT 80.149123622917 115.5897872570 1
    PT 80.668200622917 115.8847024467 1
    PT 81.185956622917 116.1795516244 1
    PT 81.702398622917 116.4745483699 1
    PT 82.217532622917 116.7694562241 1
    PT 82.731365622917 117.0642624269 1
    PT 83.243904622917 117.3591836495 1
    PT 83.755155622917 117.6539796459 1
    PT 84.265125622917 117.9488691652 1
    PT 84.773820622917 118.2438424519 1
    PT 85.281246622917 118.5386554555 1
    PT 85.787410622917 118.8335300688 1
    PT 86.292318622917 119.1284562143 1
    PT 86.795976622917 119.4231860116 1
    PT 87.298391622917 119.7181833963 1
    PT 87.799568622917 120.0129613998 1
    PT 88.299514622917 120.3077472174 1
    PT 88.798235622917 120.6027726577 1
    PT 89.295736622917 120.8975433619 1
    PT 89.792024622917 121.1925345399 1
    PT 90.287104622917 121.4872468763 1
    PT 90.780983622917 121.7821601314 1
    PT 91.273666622917 122.0770183909 1
    PT 91.765159622917 122.3720600113 1
    PT 92.255467622917 122.6667757038 1
    PT 92.744597622917 122.9616544081 1
    PT 93.232554622917 123.2566882160 1
    PT 93.719343622917 123.5513603005 1
    PT 94.204971622917 123.8464221801 1
    PT 94.689442622917 124.1410987729 1
    PT 95.172763622917 124.4361487012 1
    PT 95.654938622917 124.7310486763 1
    PT 96.135973622917 125.0257865685 1
    PT 96.615874622917 125.3206118988 1
    PT 97.094646622917 125.6155160285 1
    PT 97.572294622917 125.9104902325 1
    PT 98.048823622917 126.2052602352 1
    PT 98.999655622917 126.2052602352 1
    PT 99.475071622917 124.9934899224 1
    PT 99.955096622917 123.7815256073 1
    PT 100.439821622917 122.5695480044 1
    PT 100.929339622917 121.3577505127 1
    PT 101.423745622917 120.1458570705 1
    PT 101.923138622917 118.9338767290 1
    PT 102.427620622917 117.7218468203 1
    PT 102.937296622917 116.5100577307 1
    PT 103.452273622917 115.2981417783 1
    PT 103.972663622917 114.0862263699 1
    PT 104.498581622917 112.8742486808 1
    PT 105.030146622917 111.6623924784 1
    PT 105.567480622917 110.4504537673 1
    PT 106.110710622917 109.2384803471 1
    PT 106.659967622917 108.0265529267 1
    PT 107.215386622917 106.8145930097 1
    PT 107.777107622917 105.6027541198 1
    PT 108.345274622917 104.3908532734 1
    PT 108.920037622917 103.1789432413 1
    PT 109.501551622917 101.9669423173 1
    PT 110.089977622917 100.7549907305 1
    PT 110.685481622917 99.5430971839 1
    PT 111.288235622917 98.3311563908 1
    PT 111.898418622917 97.1192802814 1
    PT 112.516215622917 95.9073151706 1
    PT 113.141819622917 94.6954751345 1
    PT 113.775429622917 93.4835718203 1
    PT 114.417253622917 92.2716353917 1
    PT 115.067507622917 91.0596152124 1
    PT 115.726416622917 89.8477978305 1
    PT 116.394212622917 88.6358499513 1
    PT 117.071139622917 87.4239229737 1
    PT 117.757450622917 86.2119751307 1
    PT 125.412999622917 100.0000000000 1
    PT 139.812999622917 100.0000000000 1 262146 0 1
    PT 141.012999622917 100.0000000000 1 262148 0 1
    PT 143.112999622917 30.0000000000 1
    PT 144.112999622917 100.0000000000 1
    PT 172.912999622917 100.0000000000 1
    PT 173.334874622917 98.5294479888 1
    PT 173.763046107292 97.0589519898 1
    PT 174.197704622917 95.5882821511 1
    PT 174.639050560417 94.1176470588 1
    PT 175.087292747917 92.6470656358 1
    PT 175.542649857292 91.1765420992 1
    PT 176.005351107292 89.7059439158 1
    PT 176.475637669792 88.2352941176 1
    PT 176.953762669792 86.7647590470 1
    PT 177.439991185417 85.2941510957 1
    PT 177.934603060417 83.8235848833 1
    PT 178.437892201042 82.3529896194 1
    PT 178.950168685417 80.8823727653 1
    PT 179.471759466667 79.4118230969 1
    PT 180.003009076042 77.9412089461 1
    PT 180.544282435417 76.4706257209 1
    PT 184.271203685417 50.0000000000 1
    PT 189.071203685417 75.0000000000 1
    PT 191.071203685417 75.0000000000 1
    PT 191.215370352083 76.4559116985 1
    PT 191.355974260417 77.9118583147 1
    PT 191.494752878125 79.3677039585 1
    PT 191.630198398958 80.8235379696 1
    PT 191.763977496875 82.2794704493 1
    PT 191.894629771875 83.7353794538 1
    PT 192.023756791667 85.1912116746 1
    PT 192.149943516667 86.6471036761 1
    PT 192.274731300000 88.1030100393 1
    PT 192.396747562500 89.5589223076 1
    PT 192.517478135417 91.0147231484 1
    PT 192.635590893750 92.4707253095 1
    PT 192.752519791667 93.9265525668 1
    PT 192.866970920833 95.3823800129 1
    PT 192.980330432292 96.8382317339 1
    PT 193.091340307292 98.2942668231 1
    PT 202.018615807292 98.2942668231 1
    PT 202.342897182292 96.1658668872 1
    PT 202.674355744792 93.7976316098 1
    PT 203.014183088542 91.1894293214 1
    PT 203.363730182292 88.3414337520 1
    PT 203.724546151042 85.2534300297 1
    PT 204.098431401042 81.9256906677 1
    PT 204.487503494792 78.3580335268 1
    PT 204.894290119792 74.5504607218 1
    PT 205.321852869792 70.5030510195 1
    PT 205.773960963542 66.2157374943 1
    PT 206.255341994792 61.6886021054 1
    PT 206.772050088542 56.9215677718 1
    PT 207.332031151042 51.9146557669 1
    PT 207.946019619792 46.6678748461 1
    PT 208.629037651042 41.1812145027 1
    PT 209.403055619792 35.4546856617 1
    PT 210.249206119792 20.0000000000 1
  >
  <PROJBAY
  >
  <TRACK {D2D82CC8-3971-4156-8B97-56C5FBFC4ECF}
    NAME "Clarinet in Bb - cloud"
    PEAKCOL 16576
    BEAT -1
    AUTOMODE 0
    VOLPAN 1 0 -1 -1 1
    MUTESOLO 0 0 0
    IPHASE 0
    ISBUS 0 0
    BUSCOMP 0 0
    SHOWINMIX 1 0.6667 0.5 1 0.5 0 0 0
    FREEMODE 0
    SEL 1
    REC 0 0 0 0 0 0 0
    VU 2
    TRACKHEIGHT 0 0
    INQ 0 0 0 0.5 100 0 0 100
    NCHAN 2
    FX 1
    TRACKID {D2D82CC8-3971-4156-8B97-56C5FBFC4ECF}
    PERF 0
    MIDIOUT -1
    MAINSEND 1 0
    <ITEM
      POSITION 0
      SNAPOFFS 0
      LENGTH 219.24920611979206
      LOOP 0
      ALLTAKES 0
      FADEIN 1 0 0 1 0 0
      FADEOUT 1 0 0 1 0 0
      MUTE 0
      SEL 1
      IGUID {3122EFE4-C906-45DA-A738-E520C7D501AF}
      IID 1
      NAME "Clarinet in Bb - cloud.mid"
      VOLPAN 1 0 1 -1
      SOFFS 0 0
      PLAYRATE 1 1 0 -1 0 0.0025
      CHANMODE 0
      GUID {73AFCFD6-7DF5-48CD-8D86-1C435B027622}
      <SOURCE MIDI
        HASDATA 1 960 QN
        POOLEDEVTS {F230DED4-BFA8-4194-BFFF-6BD9ED77B3D4}
        <X 0 0
          /wNjMTY3
        >
        <X 0 0
          /wNDbGFyaW5ldCBpbiBCYg==
        >
        <X 0 0
          /1kCAAA=
        >
        <X 0 0
          /wFBbGNo
        >
        <X 0 0
          /wJDb3B5cmlnaHQgwqkgMjAxNQ==
        >
        E 0 c0 47 00
        E 0 b0 40 00
        E 0 b0 5b 39
        E 0 b0 0a 3c
        E 0 b0 07 7f
        E 0 b0 79 00
        E 9600 90 48 62
        E 4800 80 48 00
        E 1920 90 48 62
        E 960 80 48 00
        E 0 90 49 62
        E 638 80 49 00
        E 0 90 4a 63
        E 641 80 4a 00
        E 0 90 4b 64
        E 641 80 4b 00
        E 0 90 4d 66
        E 3840 80 4d 00
        E 0 90 4f 62
        E 2880 80 4f 00
        E 0 90 4d 62
        E 240 80 4d 00
        E 0 90 4b 60
        E 240 80 4b 00
        E 0 90 4a 5f
        E 240 80 4a 00
        E 0 90 48 5b
        E 240 80 48 00
        E 0 90 47 5a
        E 240 80 47 00
        E 0 90 45 57
        E 240 80 45 00
        E 0 90 43 55
        E 240 80 43 00
        E 0 90 42 55
        E 3120 80 42 00
        E 960 90 41 47
        E 960 80 41 00
        E 0 90 40 47
        E 3840 80 40 00
        E 0 90 3f 47
        E 2880 80 3f 00
        E 960 90 3e 47
        E 3840 80 3e 00
        E 0 90 3d 62
        E 3840 80 3d 00
        E 7680 90 3c 54
        E 638 80 3c 00
        E 0 90 3f 56
        E 641 80 3f 00
        E 0 90 43 59
        E 641 80 43 00
        E 0 90 46 5b
        E 1920 80 46 00
        E 0 90 45 55
        E 2880 80 45 00
        E 960 90 46 62
        E 960 80 46 00
        E 0 90 4a 64
        E 960 80 4a 00
        E 0 90 46 60
        E 2880 80 46 00
        E 0 90 4a 62
        E 960 80 4a 00
        E 0 90 46 60
        E 2880 80 46 00
        E 11520 90 46 62
        E 480 80 46 00
        E 0 90 47 63
        E 480 80 47 00
        E 0 90 49 65
        E 480 80 49 00
        E 0 90 4a 66
        E 480 80 4a 00
        E 0 90 4d 6b
        E 1920 80 4d 00
        E 0 90 4c 63
        E 1920 80 4c 00
        E 1920 90 4b 62
        E 480 80 4b 00
        E 0 90 49 60
        E 480 80 49 00
        E 0 90 4e 67
        E 1920 80 4e 00
        E 0 90 4d 62
        E 1920 80 4d 00
        E 0 90 48 60
        E 480 80 48 00
        E 480 90 4a 63
        E 480 80 4a 00
        E 480 90 4c 64
        E 1920 80 4c 00
        E 0 90 47 60
        E 1920 80 47 00
        E 960 90 45 62
        E 480 80 45 00
        E 0 90 43 60
        E 480 80 43 00
        E 0 90 46 64
        E 3840 80 46 00
        E 0 90 45 62
        E 5760 80 45 00
        E 1920 90 3e 3d
        E 480 80 3e 00
        E 0 90 41 3e
        E 480 80 41 00
        E 0 90 3e 3c
        E 960 80 3e 00
        E 960 90 3e 3c
        E 480 80 3e 00
        E 0 90 40 3e
        E 480 80 40 00
        E 0 90 41 3f
        E 480 80 41 00
        E 0 90 43 41
        E 480 80 43 00
        E 0 90 3e 39
        E 480 80 3e 00
        E 0 90 3c 37
        E 480 80 3c 00
        E 0 90 3b 37
        E 960 80 3b 00
        E 1440 90 3e 3d
        E 480 80 3e 00
        E 0 90 3a 3a
        E 480 80 3a 00
        E 0 90 3b 3c
        E 480 80 3b 00
        E 0 90 3e 40
        E 480 80 3e 00
        E 0 90 42 44
        E 480 80 42 00
        E 0 90 3f 3f
        E 960 80 3f 00
        E 960 90 3d 3c
        E 480 80 3d 00
        E 0 90 3e 3d
        E 480 80 3e 00
        E 0 90 43 43
        E 480 80 43 00
        E 0 90 41 3f
        E 480 80 41 00
        E 0 90 42 40
        E 960 80 42 00
        E 480 90 40 3e
        E 480 80 40 00
        E 0 90 43 41
        E 960 80 43 00
        E 480 90 41 3f
        E 480 80 41 00
        E 0 90 44 41
        E 1920 80 44 00
        E 0 90 42 3d
        E 960 80 42 00
        E 0 90 3e 3a
        E 960 80 3e 00
        E 1440 90 45 4c
        E 480 80 45 00
        E 0 90 40 3d
        E 480 80 40 00
        E 0 90 3b 39
        E 480 80 3b 00
        E 0 90 46 4a
        E 480 80 46 00
        E 0 90 41 42
        E 480 80 41 00
        E 0 90 3c 3c
        E 960 80 3c 00
        E 0 90 3d 42
        E 960 80 3d 00
        E 1440 90 42 49
        E 480 80 42 00
        E 0 90 41 48
        E 480 80 41 00
        E 0 90 3e 44
        E 480 80 3e 00
        E 0 90 44 4d
        E 960 80 44 00
        E 0 90 46 4e
        E 960 80 46 00
        E 0 90 45 4a
        E 960 80 45 00
        E 0 90 3b 3e
        E 960 80 3b 00
        E 0 90 3a 40
        E 960 80 3a 00
        E 1920 90 3c 47
        E 480 80 3c 00
        E 0 90 41 4b
        E 480 80 41 00
        E 0 90 46 4f
        E 960 80 46 00
        E 960 90 3e 44
        E 480 80 3e 00
        E 0 90 43 4a
        E 480 80 43 00
        E 0 90 49 50
        E 960 80 49 00
        E 480 90 45 49
        E 480 80 45 00
        E 0 90 42 47
        E 480 80 42 00
        E 0 90 41 47
        E 480 80 41 00
        E 0 90 44 4f
        E 960 80 44 00
        E 960 90 43 54
        E 960 80 43 00
        E 0 90 42 53
        E 960 80 42 00
        E 0 90 45 56
        E 960 80 45 00
        E 0 90 44 54
        E 960 80 44 00
        E 0 90 46 56
        E 960 80 46 00
        E 0 90 45 57
        E 960 80 45 00
        E 0 90 48 5d
        E 960 80 48 00
        E 0 90 47 5d
        E 960 80 47 00
        E 0 90 4a 65
        E 2880 80 4a 00
        E 960 90 49 62
        E 3840 80 49 00
        E 0 90 48 62
        E 1920 80 48 00
        E 0 90 46 61
        E 638 80 46 00
        E 0 90 45 61
        E 641 80 45 00
        E 0 90 43 5f
        E 641 80 43 00
        E 0 90 48 67
        E 1920 80 48 00
        E 0 90 46 62
        E 960 80 46 00
        E 960 90 45 61
        E 1920 80 45 00
        E 0 90 45 62
        E 638 80 45 00
        E 0 90 43 60
        E 641 80 43 00
        E 0 90 41 5f
        E 641 80 41 00
        E 0 90 46 66
        E 3840 80 46 00
        E 7680 90 3c 54
        E 638 80 3c 00
        E 0 90 3f 56
        E 641 80 3f 00
        E 0 90 43 59
        E 641 80 43 00
        E 0 90 46 5b
        E 1920 80 46 00
        E 0 90 45 55
        E 2880 80 45 00
        E 960 90 43 62
        E 960 80 43 00
        E 0 90 46 63
        E 960 80 46 00
        E 0 90 4a 66
        E 960 80 4a 00
        E 0 90 4d 67
        E 2880 80 4d 00
        E 0 90 4c 62
        E 1920 80 4c 00
        E 14400 90 43 62
        E 480 80 43 00
        E 480 90 45 63
        E 960 80 45 00
        E 0 90 46 63
        E 960 80 46 00
        E 0 90 43 5f
        E 1920 80 43 00
        E 0 90 45 62
        E 1920 80 45 00
        E 0 90 41 60
        E 1920 80 41 00
        E 2880 90 3f 62
        E 480 80 3f 00
        E 0 90 41 63
        E 480 80 41 00
        E 0 90 42 64
        E 638 80 42 00
        E 0 90 44 67
        E 641 80 44 00
        E 0 90 46 69
        E 641 80 46 00
        E 0 90 44 62
        E 3840 80 44 00
        E 960 90 43 62
        E 960 80 43 00
        E 0 90 46 63
        E 960 80 46 00
        E 0 90 48 65
        E 480 80 48 00
        E 480 90 48 63
        E 1920 80 48 00
        E 0 90 46 61
        E 1920 80 46 00
        E 960 90 40 61
        E 480 80 40 00
        E 0 90 42 63
        E 480 80 42 00
        E 0 90 44 65
        E 638 80 44 00
        E 0 90 46 68
        E 641 80 46 00
        E 0 90 47 67
        E 641 80 47 00
        E 0 90 46 63
        E 3840 80 46 00
        E 7680 90 40 47
        E 3840 80 40 00
        E 0 90 3f 47
        E 2880 80 3f 00
        E 960 90 3e 47
        E 3840 80 3e 00
        E 0 90 3d 62
        E 3840 80 3d 00
        E 3840 90 42 62
        E 2400 80 42 00
        E 480 90 42 62
        E 240 80 42 00
        E 0 90 43 63
        E 240 80 43 00
        E 0 90 45 65
        E 240 80 45 00
        E 0 90 47 69
        E 240 80 47 00
        E 0 90 48 6b
        E 240 80 48 00
        E 0 90 4a 6e
        E 240 80 4a 00
        E 0 90 4b 6e
        E 240 80 4b 00
        E 0 90 4d 70
        E 240 80 4d 00
        E 0 90 4f 70
        E 2880 80 4f 00
        E 0 90 4d 62
        E 3840 80 4d 00
        E 0 90 4b 62
        E 638 80 4b 00
        E 0 90 4a 61
        E 641 80 4a 00
        E 0 90 49 60
        E 641 80 49 00
        E 0 90 48 5f
        E 1920 80 48 00
        E 960 90 48 62
        E 4800 80 48 00
        E 0 90 46 62
        E 1920 80 46 00
        E 1920 90 44 62
        E 1920 80 44 00
        E 0 90 43 62
        E 480 80 43 00
        E 480 90 43 62
        E 480 80 43 00
        E 480 90 43 62
        E 1919 80 43 00
        E 1 b0 7b 00
        GUID {7CB1077B-C9FD-4E50-8E1B-429A43A6E099}
        IGNTEMPO 0 120 4 4
        SRCCOLOR 2727
        VELLANE 19 95 0
        VELLANE 1 108 0
        VELLANE 11 132 0
        VELLANE -1 63 0
        COLORMAP "N:\Public\Critic\records\Reaper\midi_note_colormap (1).png"
        CFGEDITVIEW 18976.350671 0.028934 43 12 0 -1 0 0 0 0.5
        KEYSNAP 0
        TRACKSEL 209
        EVTFILTER 0 -1 -1 -1 -1 0 0 0 0 -1 -1 -1 -1 0 -1 0 -1 -1
        CFGEDIT 1 1 0 1 0 0 1 0 1 0 1 0.125 0 0 1888 959 0 0 0 1 0 0 0 0 0 0.5 0 0 1 64
      >
    >
  >
  <TRACK {E5687322-6C8B-4589-A83E-AA6B1923795C}
    NAME "Violin I - cloud"
    PEAKCOL 16576
    BEAT -1
    AUTOMODE 0
    VOLPAN 1 0 -1 -1 1
    MUTESOLO 0 0 0
    IPHASE 0
    ISBUS 0 0
    BUSCOMP 0 0
    SHOWINMIX 1 0.6667 0.5 1 0.5 0 0 0
    FREEMODE 0
    SEL 0
    REC 0 0 0 0 0 0 0
    VU 2
    TRACKHEIGHT 0 0
    INQ 0 0 0 0.5 100 0 0 100
    NCHAN 2
    FX 1
    TRACKID {E5687322-6C8B-4589-A83E-AA6B1923795C}
    PERF 0
    MIDIOUT -1
    MAINSEND 1 0
    <ITEM
      POSITION 0
      SNAPOFFS 0
      LENGTH 219.24920611979206
      LOOP 0
      ALLTAKES 0
      FADEIN 1 0 0 1 0 0
      FADEOUT 1 0 0 1 0 0
      MUTE 0
      SEL 0
      IGUID {E7722926-3963-4E13-8533-0063DBF3B110}
      IID 2
      NAME "Violin I - cloud.mid"
      VOLPAN 1 0 1 -1
      SOFFS 0 0
      PLAYRATE 1 1 0 -1 0 0.0025
      CHANMODE 0
      GUID {7F8840A0-06CD-4414-90BB-8911F3AE9DD9}
      <SOURCE MIDI
        HASDATA 1 960 QN
        POOLEDEVTS {667F2528-BB13-41E8-9DDC-12E703749170}
        <X 0 0
          /wNWaW9saW4gSQ==
        >
        E 0 c1 28 00
        E 0 b1 40 00
        E 0 b1 5b 30
        E 0 b1 0a 30
        E 0 b1 07 64
        E 0 b1 79 00
        E 0 91 3c 54
        E 2880 81 3c 00
        E 0 91 40 54
        E 2880 81 40 00
        E 0 91 44 54
        E 1920 81 44 00
        E 0 91 4b 56
        E 5760 81 4b 00
        E 0 91 4c 54
        E 1920 81 4c 00
        E 0 91 4d 54
        E 7680 81 4d 00
        E 0 91 47 54
        E 7680 81 47 00
        E 1920 91 49 54
        E 3840 81 49 00
        E 0 91 46 54
        E 1920 81 46 00
        E 0 91 44 53
        E 1920 81 44 00
        E 0 91 47 55
        E 3840 81 47 00
        E 0 91 45 54
        E 1920 81 45 00
        E 0 91 46 54
        E 4800 81 46 00
        E 960 c1 2c 00
        E 0 b1 07 64
        E 0 b1 0a 30
        E 0 b1 5b 3b
        E 0 91 48 47
        E 23040 81 48 00
        E 458 c1 28 00
        E 0 b1 07 64
        E 0 b1 0a 30
        E 0 b1 5b 3b
        E 5302 91 44 47
        E 3840 81 44 00
        E 0 91 43 47
        E 3840 81 43 00
        E 0 91 47 47
        E 3840 81 47 00
        E 0 91 42 47
        E 3840 81 42 00
        E 0 91 43 47
        E 1920 81 43 00
        E 0 91 45 47
        E 1920 81 45 00
        E 0 91 47 47
        E 3840 81 47 00
        E 0 91 43 47
        E 3840 81 43 00
        E 0 91 42 47
        E 5760 81 42 00
        E 6720 91 56 3d
        E 2880 81 56 00
        E 0 91 55 3d
        E 2880 81 55 00
        E 0 91 52 3d
        E 960 81 52 00
        E 0 91 54 3e
        E 2880 81 54 00
        E 0 91 53 44
        E 960 81 53 00
        E 0 91 4f 45
        E 1920 81 4f 00
        E 0 91 4e 46
        E 960 81 4e 00
        E 0 91 4d 46
        E 2880 81 4d 00
        E 0 91 4c 47
        E 960 81 4c 00
        E 960 91 51 49
        E 3840 81 51 00
        E 0 91 50 47
        E 960 81 50 00
        E 960 91 53 48
        E 3840 81 53 00
        E 0 91 52 47
        E 960 81 52 00
        E 0 91 4f 46
        E 1920 81 4f 00
        E 480 91 4d 46
        E 480 81 4d 00
        E 0 91 48 42
        E 480 81 48 00
        E 0 91 43 3f
        E 480 81 43 00
        E 0 91 4e 4f
        E 4800 81 4e 00
        E 0 91 50 47
        E 2880 81 50 00
        E 960 91 4d 47
        E 3840 81 4d 00
        E 0 91 4e 47
        E 3840 81 4e 00
        E 0 91 4c 54
        E 3840 81 4c 00
        E 0 91 49 54
        E 1920 81 49 00
        E 0 91 46 53
        E 1920 81 46 00
        E 0 91 48 54
        E 3840 81 48 00
        E 0 91 4a 54
        E 3840 81 4a 00
        E 0 91 49 54
        E 9600 81 49 00
        E 1920 c1 2c 00
        E 0 b1 07 64
        E 0 b1 0a 30
        E 0 b1 5b 3b
        E 0 91 48 47
        E 23040 81 48 00
        E 458 c1 28 00
        E 0 b1 07 64
        E 0 b1 0a 30
        E 0 b1 5b 3b
        E 1462 91 3e 47
        E 480 81 3e 00
        E 480 91 41 48
        E 480 81 41 00
        E 480 91 45 59
        E 1440 81 45 00
        E 0 91 48 4a
        E 3360 81 48 00
        E 0 91 45 47
        E 960 81 45 00
        E 0 91 46 48
        E 2880 81 46 00
        E 0 91 43 47
        E 960 81 43 00
        E 0 91 45 48
        E 2880 81 45 00
        E 0 91 40 47
        E 960 81 40 00
        E 0 91 41 47
        E 3840 81 41 00
        E 0 91 42 47
        E 2880 81 42 00
        E 0 91 47 48
        E 960 81 47 00
        E 0 91 46 47
        E 3840 81 46 00
        E 0 91 48 47
        E 4800 81 48 00
        E 0 91 46 47
        E 2880 81 46 00
        E 0 91 49 47
        E 7680 81 49 00
        E 0 91 4d 47
        E 7680 81 4d 00
        E 0 91 49 47
        E 3840 81 49 00
        E 0 91 46 47
        E 1920 81 46 00
        E 0 91 44 47
        E 1920 81 44 00
        E 0 91 47 48
        E 3840 81 47 00
        E 0 91 45 47
        E 1920 81 45 00
        E 0 91 46 47
        E 4800 81 46 00
        E 960 91 47 47
        E 7680 81 47 00
        E 0 91 4d 47
        E 7680 81 4d 00
        E 0 91 4c 47
        E 1920 81 4c 00
        E 0 91 4b 47
        E 5760 81 4b 00
        E 0 91 44 47
        E 1920 81 44 00
        E 0 91 40 47
        E 2880 81 40 00
        E 0 91 3c 47
        E 480 81 3c 00
        E 480 91 3c 47
        E 1919 81 3c 00
        E 1 b0 7b 00
        GUID {8E6C76E7-53E4-4997-AA9F-C85D1B19A140}
        IGNTEMPO 0 120 4 4
        SRCCOLOR 2728
        COLORMAP "N:\Public\Critic\records\Reaper\midi_note_colormap (1).png"
      >
    >
  >
  <TRACK {2254AF7A-343A-4281-B97A-953C9B0B63AF}
    NAME "Violin II - cloud"
    PEAKCOL 16576
    BEAT -1
    AUTOMODE 0
    VOLPAN 1 0 -1 -1 1
    MUTESOLO 0 0 0
    IPHASE 0
    ISBUS 0 0
    BUSCOMP 0 0
    SHOWINMIX 1 0.6667 0.5 1 0.5 0 0 0
    FREEMODE 0
    SEL 0
    REC 0 0 0 0 0 0 0
    VU 2
    TRACKHEIGHT 0 0
    INQ 0 0 0 0.5 100 0 0 100
    NCHAN 2
    FX 1
    TRACKID {2254AF7A-343A-4281-B97A-953C9B0B63AF}
    PERF 0
    MIDIOUT -1
    MAINSEND 1 0
    <ITEM
      POSITION 0
      SNAPOFFS 0
      LENGTH 219.24920611979206
      LOOP 0
      ALLTAKES 0
      FADEIN 1 0 0 1 0 0
      FADEOUT 1 0 0 1 0 0
      MUTE 0
      SEL 0
      IGUID {6B9525A1-E60C-43F7-9D1C-2A4FF38B804C}
      IID 3
      NAME "Violin II - cloud.mid"
      VOLPAN 1 0 1 -1
      SOFFS 0 0
      PLAYRATE 1 1 0 -1 0 0.0025
      CHANMODE 0
      GUID {7DFDC21F-8404-4FCA-8A3A-01C18973052B}
      <SOURCE MIDI
        HASDATA 1 960 QN
        POOLEDEVTS {E3704A99-F33B-4327-B468-411425618C7D}
        <X 0 0
          /wNWaW9saW4gSUk=
        >
        E 0 c2 28 00
        E 0 b2 40 00
        E 0 b2 5b 30
        E 0 b2 0a 4c
        E 0 b2 07 5f
        E 0 b2 79 00
        E 0 92 39 54
        E 2880 82 39 00
        E 0 92 37 54
        E 960 82 37 00
        E 0 92 39 55
        E 1920 82 39 00
        E 0 92 3a 54
        E 960 82 3a 00
        E 0 92 3c 55
        E 960 82 3c 00
        E 0 92 3d 55
        E 5760 82 3d 00
        E 0 92 38 54
        E 960 82 38 00
        E 0 92 39 54
        E 960 82 39 00
        E 0 92 3a 55
        E 1920 82 3a 00
        E 0 92 3c 55
        E 5760 82 3c 00
        E 0 92 40 54
        E 7680 82 40 00
        E 1920 92 3b 54
        E 7680 82 3b 00
        E 0 92 42 54
        E 2880 82 42 00
        E 0 92 40 54
        E 960 82 40 00
        E 0 92 43 55
        E 6720 82 43 00
        E 960 c2 2c 00
        E 0 b2 07 5f
        E 0 b2 0a 4c
        E 0 b2 5b 3b
        E 0 92 43 47
        E 23040 82 43 00
        E 458 c2 28 00
        E 0 b2 07 5f
        E 0 b2 0a 4c
        E 0 b2 5b 3b
        E 5302 92 42 47
        E 1920 82 42 00
        E 0 92 41 47
        E 5760 82 41 00
        E 0 92 40 47
        E 3840 82 40 00
        E 0 92 3f 47
        E 3840 82 3f 00
        E 0 92 40 47
        E 3840 82 40 00
        E 0 92 42 47
        E 3840 82 42 00
        E 0 92 41 47
        E 1920 82 41 00
        E 0 92 3f 47
        E 1920 82 3f 00
        E 0 92 40 47
        E 5760 82 40 00
        E 9600 92 52 3d
        E 3840 82 52 00
        E 0 92 51 3d
        E 3840 82 51 00
        E 0 92 4c 3d
        E 3840 82 4c 00
        E 0 92 48 47
        E 2880 82 48 00
        E 960 92 4d 47
        E 4800 82 4d 00
        E 960 92 4f 47
        E 4800 82 4f 00
        E 0 92 4d 47
        E 960 82 4d 00
        E 0 92 4c 47
        E 960 82 4c 00
        E 960 92 4a 46
        E 1920 82 4a 00
        E 0 92 49 46
        E 3840 82 49 00
        E 0 92 49 47
        E 2880 82 49 00
        E 960 92 4a 47
        E 3840 82 4a 00
        E 0 92 4b 54
        E 3840 82 4b 00
        E 0 92 4a 54
        E 1920 82 4a 00
        E 0 92 49 54
        E 319 82 49 00
        E 319 92 47 52
        E 318 82 47 00
        E 323 92 45 50
        E 641 82 45 00
        E 0 92 42 4e
        E 3840 82 42 00
        E 0 92 41 54
        E 7680 82 41 00
        E 0 92 40 54
        E 9600 82 40 00
        E 1920 c2 2c 00
        E 0 b2 07 5f
        E 0 b2 0a 4c
        E 0 b2 5b 3b
        E 0 92 43 47
        E 23040 82 43 00
        E 458 c2 28 00
        E 0 b2 07 5f
        E 0 b2 0a 4c
        E 0 b2 5b 3b
        E 5302 92 41 47
        E 3840 82 41 00
        E 0 92 43 47
        E 3840 82 43 00
        E 0 92 3d 47
        E 1920 82 3d 00
        E 0 92 43 49
        E 1920 82 43 00
        E 0 92 47 48
        E 3840 82 47 00
        E 0 92 44 47
        E 9600 82 44 00
        E 0 92 41 47
        E 1920 82 41 00
        E 0 92 43 48
        E 3840 82 43 00
        E 0 92 42 47
        E 3840 82 42 00
        E 0 92 41 47
        E 3840 82 41 00
        E 0 92 3f 47
        E 3840 82 3f 00
        E 0 92 44 47
        E 3840 82 44 00
        E 0 92 3b 47
        E 7680 82 3b 00
        E 0 92 42 47
        E 2880 82 42 00
        E 0 92 40 47
        E 960 82 40 00
        E 0 92 43 48
        E 6720 82 43 00
        E 960 92 40 47
        E 7680 82 40 00
        E 0 92 3c 47
        E 5760 82 3c 00
        E 0 92 3a 47
        E 1920 82 3a 00
        E 0 92 39 47
        E 960 82 39 00
        E 0 92 38 47
        E 960 82 38 00
        E 0 92 3d 4a
        E 5760 82 3d 00
        E 0 92 3c 47
        E 960 82 3c 00
        E 0 92 3a 46
        E 960 82 3a 00
        E 0 92 39 46
        E 1920 82 39 00
        E 0 92 37 47
        E 960 82 37 00
        E 0 92 39 47
        E 480 82 39 00
        E 480 92 39 47
        E 1919 82 39 00
        E 1 b0 7b 00
        GUID {849B53D3-CE95-4CD5-9513-DD5DEA8EF47F}
        IGNTEMPO 0 120 4 4
        SRCCOLOR 2729
        COLORMAP "N:\Public\Critic\records\Reaper\midi_note_colormap (1).png"
      >
    >
  >
  <TRACK {34F9FDB9-55AA-436A-9B92-A550C6C7B7F7}
    NAME "Viola - cloud"
    PEAKCOL 16576
    BEAT -1
    AUTOMODE 0
    VOLPAN 1 0 -1 -1 1
    MUTESOLO 0 0 0
    IPHASE 0
    ISBUS 0 0
    BUSCOMP 0 0
    SHOWINMIX 1 0.6667 0.5 1 0.5 0 0 0
    FREEMODE 0
    SEL 0
    REC 0 0 0 0 0 0 0
    VU 2
    TRACKHEIGHT 0 0
    INQ 0 0 0 0.5 100 0 0 100
    NCHAN 2
    FX 1
    TRACKID {34F9FDB9-55AA-436A-9B92-A550C6C7B7F7}
    PERF 0
    MIDIOUT -1
    MAINSEND 1 0
    <ITEM
      POSITION 0
      SNAPOFFS 0
      LENGTH 219.24920611979206
      LOOP 0
      ALLTAKES 0
      FADEIN 1 0 0 1 0 0
      FADEOUT 1 0 0 1 0 0
      MUTE 0
      SEL 0
      IGUID {4C1636B0-F8F9-41D0-9609-C69CAA3EE4B9}
      IID 4
      NAME "Viola - cloud.mid"
      VOLPAN 1 0 1 -1
      SOFFS 0 0
      PLAYRATE 1 1 0 -1 0 0.0025
      CHANMODE 0
      GUID {03E51EB3-E917-481E-BED2-32AA23A01346}
      <SOURCE MIDI
        HASDATA 1 960 QN
        POOLEDEVTS {C5E4D4A5-937A-4225-A0DB-6F5F8A4DCF2E}
        <X 0 0
          /wNWaW9sYQ==
        >
        E 0 c3 29 00
        E 0 b3 40 00
        E 0 b3 5b 3c
        E 0 b3 0a 20
        E 0 b3 07 58
        E 0 b3 79 00
        E 0 93 34 54
        E 2880 83 34 00
        E 0 93 31 54
        E 960 83 31 00
        E 0 93 36 56
        E 1920 83 36 00
        E 0 93 35 54
        E 7680 83 35 00
        E 0 93 34 54
        E 1920 83 34 00
        E 0 93 32 53
        E 1920 83 32 00
        E 0 93 33 54
        E 1920 83 33 00
        E 0 93 30 53
        E 3840 83 30 00
        E 0 93 32 54
        E 7680 83 32 00
        E 1920 93 34 54
        E 3840 83 34 00
        E 0 93 36 54
        E 1920 83 36 00
        E 0 93 35 54
        E 960 83 35 00
        E 0 93 38 56
        E 960 83 38 00
        E 0 93 39 55
        E 3840 83 39 00
        E 0 93 39 54
        E 1920 83 39 00
        E 0 93 37 53
        E 4800 83 37 00
        E 960 c3 2c 00
        E 0 b3 07 58
        E 0 b3 0a 20
        E 0 b3 5b 3b
        E 0 93 33 47
        E 23040 83 33 00
        E 458 c3 29 00
        E 0 b3 07 58
        E 0 b3 0a 20
        E 0 b3 5b 3b
        E 5302 93 40 47
        E 1920 83 40 00
        E 0 93 3e 47
        E 5760 83 3e 00
        E 0 93 3d 47
        E 3840 83 3d 00
        E 0 93 3a 47
        E 3840 83 3a 00
        E 0 93 3c 47
        E 3840 83 3c 00
        E 0 93 3e 47
        E 3840 83 3e 00
        E 0 93 3f 47
        E 3840 83 3f 00
        E 0 93 3c 47
        E 5760 83 3c 00
        E 13440 93 41 3d
        E 1920 83 41 00
        E 0 93 3d 3c
        E 1920 83 3d 00
        E 0 93 3c 3c
        E 3840 83 3c 00
        E 0 93 38 3d
        E 2880 83 38 00
        E 960 93 3e 48
        E 4800 83 3e 00
        E 960 93 40 47
        E 3840 83 40 00
        E 0 93 3d 47
        E 1920 83 3d 00
        E 0 93 3c 47
        E 960 83 3c 00
        E 960 93 3a 46
        E 1920 83 3a 00
        E 0 93 39 47
        E 3840 83 39 00
        E 0 93 35 53
        E 2880 83 35 00
        E 960 93 38 54
        E 3840 83 38 00
        E 0 93 31 53
        E 1920 83 31 00
        E 0 93 36 55
        E 1920 83 36 00
        E 0 93 38 55
        E 7680 83 38 00
        E 0 93 37 54
        E 7680 83 37 00
        E 0 93 3a 54
        E 3840 83 3a 00
        E 0 93 3d 54
        E 5760 83 3d 00
        E 1920 c3 2c 00
        E 0 b3 07 58
        E 0 b3 0a 20
        E 0 b3 5b 3b
        E 0 93 33 47
        E 23040 83 33 00
        E 458 c3 29 00
        E 0 b3 07 58
        E 0 b3 0a 20
        E 0 b3 5b 3b
        E 5302 93 39 47
        E 3840 83 39 00
        E 0 93 34 47
        E 7680 83 34 00
        E 0 93 38 47
        E 1920 83 38 00
        E 0 93 3b 48
        E 1920 83 3b 00
        E 0 93 3d 48
        E 3840 83 3d 00
        E 0 93 41 47
        E 7680 83 41 00
        E 0 93 3c 47
        E 3840 83 3c 00
        E 0 93 40 47
        E 3840 83 40 00
        E 0 93 38 47
        E 3840 83 38 00
        E 0 93 3b 47
        E 3840 83 3b 00
        E 0 93 3c 47
        E 3840 83 3c 00
        E 0 93 34 47
        E 3840 83 34 00
        E 0 93 36 47
        E 1920 83 36 00
        E 0 93 35 47
        E 960 83 35 00
        E 0 93 38 48
        E 960 83 38 00
        E 0 93 39 48
        E 3840 83 39 00
        E 0 93 39 47
        E 1920 83 39 00
        E 0 93 37 47
        E 4800 83 37 00
        E 960 93 32 47
        E 7680 83 32 00
        E 0 93 30 47
        E 3840 83 30 00
        E 0 93 33 47
        E 1920 83 33 00
        E 0 93 32 47
        E 1920 83 32 00
        E 0 93 34 48
        E 1920 83 34 00
        E 0 93 35 47
        E 7680 83 35 00
        E 0 93 36 47
        E 1920 83 36 00
        E 0 93 31 47
        E 960 83 31 00
        E 0 93 34 47
        E 480 83 34 00
        E 480 93 34 47
        E 1919 83 34 00
        E 1 b0 7b 00
        GUID {889B7BFC-B2B4-43A8-8A0C-186F64733FFF}
        IGNTEMPO 0 120 4 4
        SRCCOLOR 2730
        COLORMAP "N:\Public\Critic\records\Reaper\midi_note_colormap (1).png"
      >
    >
  >
  <TRACK {2D961EC1-4BCA-4F58-BFCA-E7546733CC97}
    NAME "Violoncello - cloud"
    PEAKCOL 16576
    BEAT -1
    AUTOMODE 0
    VOLPAN 1 0 -1 -1 1
    MUTESOLO 0 0 0
    IPHASE 0
    ISBUS 0 0
    BUSCOMP 0 0
    SHOWINMIX 1 0.6667 0.5 1 0.5 0 0 0
    FREEMODE 0
    SEL 0
    REC 0 0 0 0 0 0 0
    VU 2
    TRACKHEIGHT 0 0
    INQ 0 0 0 0.5 100 0 0 100
    NCHAN 2
    FX 1
    TRACKID {2D961EC1-4BCA-4F58-BFCA-E7546733CC97}
    PERF 0
    MIDIOUT -1
    MAINSEND 1 0
    <ITEM
      POSITION 0
      SNAPOFFS 0
      LENGTH 219.24920611979206
      LOOP 0
      ALLTAKES 0
      FADEIN 1 0 0 1 0 0
      FADEOUT 1 0 0 1 0 0
      MUTE 0
      SEL 0
      IGUID {56B76E14-6304-48AA-8ADC-C684F301B081}
      IID 5
      NAME "Violoncello - cloud.mid"
      VOLPAN 1 0 1 -1
      SOFFS 0 0
      PLAYRATE 1 1 0 -1 0 0.0025
      CHANMODE 0
      GUID {9436E16E-1B6C-4932-8E4B-6B79CBA22E74}
      <SOURCE MIDI
        HASDATA 1 960 QN
        POOLEDEVTS {AFF1B30B-0E9B-47A1-8CBD-675B328BAF95}
        <X 0 0
          /wNWaW9sb25jZWxsbw==
        >
        E 0 c4 2a 00
        E 0 b4 40 00
        E 0 b4 5b 3c
        E 0 b4 0a 5f
        E 0 b4 07 4e
        E 0 b4 79 00
        E 0 94 2d 54
        E 2880 84 2d 00
        E 0 94 2e 54
        E 960 84 2e 00
        E 0 94 2f 54
        E 960 84 2f 00
        E 0 94 31 55
        E 960 84 31 00
        E 0 94 32 55
        E 1920 84 32 00
        E 0 94 2c 53
        E 5760 84 2c 00
        E 0 94 2f 54
        E 1920 84 2f 00
        E 0 94 2e 54
        E 1920 84 2e 00
        E 0 94 2d 54
        E 1920 84 2d 00
        E 0 94 2c 54
        E 3840 84 2c 00
        E 0 94 2b 54
        E 7680 84 2b 00
        E 1920 94 2c 54
        E 3840 84 2c 00
        E 0 94 2f 54
        E 3840 84 2f 00
        E 0 94 2d 54
        E 3840 84 2d 00
        E 0 94 34 54
        E 1920 84 34 00
        E 0 94 31 53
        E 4800 84 31 00
        E 960 c4 2c 00
        E 0 b4 07 4e
        E 0 b4 0a 5f
        E 0 b4 5b 3b
        E 0 94 30 47
        E 23040 84 30 00
        E 458 c4 2a 00
        E 0 b4 07 4e
        E 0 b4 0a 5f
        E 0 b4 5b 3b
        E 1462 94 32 47
        E 480 84 32 00
        E 480 94 35 48
        E 480 84 35 00
        E 480 94 39 59
        E 1440 84 39 00
        E 0 94 3c 4a
        E 2400 84 3c 00
        E 0 94 3b 47
        E 5760 84 3b 00
        E 0 94 37 47
        E 3840 84 37 00
        E 0 94 33 47
        E 480 84 33 00
        E 480 94 35 48
        E 480 84 35 00
        E 480 94 36 48
        E 960 84 36 00
        E 0 94 38 49
        E 960 84 38 00
        E 0 94 39 48
        E 3840 84 39 00
        E 0 94 32 47
        E 1920 84 32 00
        E 0 94 2a 46
        E 1920 84 2a 00
        E 0 94 30 48
        E 480 84 30 00
        E 480 94 32 48
        E 480 84 32 00
        E 480 94 33 48
        E 1920 84 33 00
        E 0 94 32 47
        E 5760 84 32 00
        E 5760 94 26 47
        E 480 84 26 00
        E 480 94 26 47
        E 480 84 26 00
        E 480 94 26 47
        E 1920 84 26 00
        E 7680 94 26 47
        E 480 84 26 00
        E 480 94 26 47
        E 480 84 26 00
        E 480 94 26 47
        E 1920 84 26 00
        E 7680 94 26 47
        E 480 84 26 00
        E 480 94 26 47
        E 480 84 26 00
        E 480 94 26 47
        E 1920 84 26 00
        E 7680 94 26 47
        E 480 84 26 00
        E 480 94 26 47
        E 480 84 26 00
        E 480 94 26 47
        E 1920 84 26 00
        E 3840 94 2e 47
        E 3840 84 2e 00
        E 0 94 2d 47
        E 3840 84 2d 00
        E 0 94 2f 47
        E 3840 84 2f 00
        E 0 94 2e 47
        E 1920 84 2e 00
        E 0 94 2a 47
        E 1920 84 2a 00
        E 0 94 2d 48
        E 3840 84 2d 00
        E 0 94 2b 47
        E 3840 84 2b 00
        E 0 94 28 47
        E 3840 84 28 00
        E 0 94 2d 47
        E 5760 84 2d 00
        E 1920 c4 2c 00
        E 0 b4 07 4e
        E 0 b4 0a 5f
        E 0 b4 5b 3b
        E 0 94 30 47
        E 23040 84 30 00
        E 458 c4 2a 00
        E 0 b4 07 4e
        E 0 b4 0a 5f
        E 0 b4 5b 3b
        E 5302 94 32 47
        E 3840 84 32 00
        E 0 94 30 47
        E 3840 84 30 00
        E 0 94 34 47
        E 3840 84 34 00
        E 0 94 33 47
        E 3840 84 33 00
        E 0 94 35 47
        E 3840 84 35 00
        E 0 94 31 47
        E 1920 84 31 00
        E 0 94 38 49
        E 1920 84 38 00
        E 0 94 35 47
        E 3840 84 35 00
        E 0 94 34 47
        E 3840 84 34 00
        E 0 94 2e 47
        E 1920 84 2e 00
        E 0 94 2a 47
        E 1920 84 2a 00
        E 0 94 31 48
        E 3840 84 31 00
        E 0 94 2c 47
        E 3840 84 2c 00
        E 0 94 27 47
        E 3840 84 27 00
        E 0 94 2c 47
        E 3840 84 2c 00
        E 0 94 2f 47
        E 3840 84 2f 00
        E 0 94 2d 47
        E 3840 84 2d 00
        E 0 94 34 47
        E 1920 84 34 00
        E 0 94 31 47
        E 4800 84 31 00
        E 960 94 2b 47
        E 7680 84 2b 00
        E 0 94 2c 47
        E 3840 84 2c 00
        E 0 94 2d 47
        E 1920 84 2d 00
        E 0 94 2e 47
        E 1920 84 2e 00
        E 0 94 2f 47
        E 1920 84 2f 00
        E 0 94 2c 47
        E 5760 84 2c 00
        E 0 94 32 47
        E 1920 84 32 00
        E 0 94 31 47
        E 960 84 31 00
        E 0 94 2f 47
        E 960 84 2f 00
        E 0 94 2e 47
        E 960 84 2e 00
        E 0 94 2d 47
        E 480 84 2d 00
        E 480 94 2d 47
        E 1919 84 2d 00
        E 1 b0 7b 00
        GUID {0ACA8192-5BCF-47A7-B06F-4288301524CE}
        IGNTEMPO 0 120 4 4
        SRCCOLOR 2731
        COLORMAP "N:\Public\Critic\records\Reaper\midi_note_colormap (1).png"
      >
    >
  >
>
