MFile 1 4 960
MTrk
0 TimeSig 4/4 24 8
0 KeySig 0 major
0 Tempo 428571
0 Meta TrkName "c160"
0 Meta Text "Alch"
0 Meta Copyright "Copyright © 2014"
1 Meta TrkEnd
TrkEnd
MTrk
0 PrCh ch=2 p=73
0 Par ch=2 c=121 v=0
0 Par ch=2 c=64 v=0
0 Par ch=2 c=91 v=52
0 Par ch=2 c=10 v=70
0 Par ch=2 c=7 v=95
0 Meta TrkName "Flute"
3840 On ch=2 n=76 v=76
4320 Off ch=2 n=76 v=0
4800 On ch=2 n=75 v=76
5280 Off ch=2 n=75 v=0
5760 On ch=2 n=74 v=75
6240 Off ch=2 n=74 v=0
6720 On ch=2 n=73 v=74
7680 Off ch=2 n=73 v=0
7680 On ch=2 n=88 v=88
8269 Off ch=2 n=88 v=0
8269 On ch=2 n=88 v=90
9120 Off ch=2 n=88 v=0
10560 On ch=2 n=81 v=74
11149 Off ch=2 n=81 v=0
11149 On ch=2 n=82 v=78
12480 Off ch=2 n=82 v=0
14029 On ch=2 n=86 v=81
14400 Off ch=2 n=86 v=0
14400 On ch=2 n=82 v=74
14719 Off ch=2 n=82 v=0
14719 On ch=2 n=80 v=71
15038 Off ch=2 n=80 v=0
15038 On ch=2 n=77 v=67
15360 Off ch=2 n=77 v=0
15360 On ch=2 n=76 v=67
17280 Off ch=2 n=76 v=0
24589 On ch=2 n=77 v=79
24960 Off ch=2 n=77 v=0
24960 On ch=2 n=80 v=78
25279 Off ch=2 n=80 v=0
25279 On ch=2 n=82 v=80
25598 Off ch=2 n=82 v=0
25598 On ch=2 n=83 v=81
25920 Off ch=2 n=83 v=0
25920 On ch=2 n=84 v=83
26509 Off ch=2 n=84 v=0
26509 On ch=2 n=87 v=90
28800 Off ch=2 n=87 v=0
29389 On ch=2 n=89 v=84
30240 Off ch=2 n=89 v=0
30720 On ch=2 n=89 v=77
32640 Off ch=2 n=89 v=0
35149 On ch=2 n=89 v=79
35520 Off ch=2 n=89 v=0
35520 On ch=2 n=87 v=75
35839 Off ch=2 n=87 v=0
35839 On ch=2 n=84 v=71
36158 Off ch=2 n=84 v=0
36158 On ch=2 n=89 v=80
36480 Off ch=2 n=89 v=0
36480 On ch=2 n=87 v=76
36720 Off ch=2 n=87 v=0
36720 On ch=2 n=84 v=69
36960 Off ch=2 n=84 v=0
36960 On ch=2 n=83 v=68
37200 Off ch=2 n=83 v=0
37200 On ch=2 n=82 v=67
37440 Off ch=2 n=82 v=0
37440 On ch=2 n=80 v=65
38029 Off ch=2 n=80 v=0
38029 On ch=2 n=77 v=67
40320 Off ch=2 n=77 v=0
42829 On ch=2 n=77 v=79
43200 Off ch=2 n=77 v=0
43200 On ch=2 n=80 v=78
43789 Off ch=2 n=80 v=0
43789 On ch=2 n=77 v=77
44160 Off ch=2 n=77 v=0
44160 On ch=2 n=82 v=82
44640 Off ch=2 n=82 v=0
44640 On ch=2 n=83 v=83
44880 Off ch=2 n=83 v=0
44880 On ch=2 n=75 v=67
45120 Off ch=2 n=75 v=0
45120 On ch=2 n=72 v=65
45709 Off ch=2 n=72 v=0
45709 On ch=2 n=84 v=91
48960 Off ch=2 n=84 v=0
58560 On ch=2 n=94 v=76
59520 Off ch=2 n=94 v=0
59520 On ch=2 n=92 v=75
60109 Off ch=2 n=92 v=0
60109 On ch=2 n=89 v=75
60480 Off ch=2 n=89 v=0
60480 On ch=2 n=87 v=70
60799 Off ch=2 n=87 v=0
60799 On ch=2 n=84 v=67
61118 Off ch=2 n=84 v=0
61118 On ch=2 n=83 v=66
61440 Off ch=2 n=83 v=0
61440 On ch=2 n=82 v=66
62029 Off ch=2 n=82 v=0
62029 On ch=2 n=80 v=67
62400 Off ch=2 n=80 v=0
62400 On ch=2 n=92 v=88
62640 Off ch=2 n=92 v=0
62640 On ch=2 n=89 v=86
62880 Off ch=2 n=89 v=0
62880 On ch=2 n=87 v=80
63120 Off ch=2 n=87 v=0
63120 On ch=2 n=84 v=70
63360 Off ch=2 n=84 v=0
63360 On ch=2 n=83 v=68
63600 Off ch=2 n=83 v=0
63600 On ch=2 n=81 v=65
63840 Off ch=2 n=81 v=0
63840 On ch=2 n=78 v=65
64080 Off ch=2 n=78 v=0
64080 On ch=2 n=76 v=65
64320 Off ch=2 n=76 v=0
64320 On ch=2 n=73 v=65
64800 Off ch=2 n=73 v=0
69709 On ch=2 n=72 v=79
70080 Off ch=2 n=72 v=0
70080 On ch=2 n=75 v=78
70669 Off ch=2 n=75 v=0
70669 On ch=2 n=77 v=83
71040 Off ch=2 n=77 v=0
71040 On ch=2 n=72 v=72
71411 Off ch=2 n=72 v=0
71520 On ch=2 n=74 v=78
71629 Off ch=2 n=74 v=0
71629 On ch=2 n=75 v=81
72000 Off ch=2 n=75 v=0
72000 On ch=2 n=77 v=82
72319 Off ch=2 n=77 v=0
72319 On ch=2 n=78 v=84
72638 Off ch=2 n=78 v=0
72638 On ch=2 n=79 v=85
72960 Off ch=2 n=79 v=0
72960 On ch=2 n=82 v=88
73549 Off ch=2 n=82 v=0
73549 On ch=2 n=75 v=71
74880 Off ch=2 n=75 v=0
78240 On ch=2 n=80 v=76
78480 Off ch=2 n=80 v=0
78480 On ch=2 n=84 v=78
78720 Off ch=2 n=84 v=0
78720 On ch=2 n=87 v=80
79309 Off ch=2 n=87 v=0
79309 On ch=2 n=89 v=85
79680 Off ch=2 n=89 v=0
79680 On ch=2 n=87 v=78
79999 Off ch=2 n=87 v=0
79999 On ch=2 n=84 v=71
80318 Off ch=2 n=84 v=0
80318 On ch=2 n=83 v=69
80640 Off ch=2 n=83 v=0
80640 On ch=2 n=82 v=68
81229 Off ch=2 n=82 v=0
81229 On ch=2 n=80 v=69
81600 Off ch=2 n=80 v=0
81600 On ch=2 n=78 v=65
81919 Off ch=2 n=78 v=0
81919 On ch=2 n=73 v=65
82238 Off ch=2 n=73 v=0
82238 On ch=2 n=71 v=65
82560 Off ch=2 n=71 v=0
82560 On ch=2 n=68 v=65
84000 Off ch=2 n=68 v=0
84878 On ch=2 n=81 v=84
85069 Off ch=2 n=81 v=0
85069 On ch=2 n=82 v=87
85440 Off ch=2 n=82 v=0
86400 On ch=2 n=82 v=80
86989 Off ch=2 n=82 v=0
86989 On ch=2 n=77 v=76
88320 Off ch=2 n=77 v=0
89280 On ch=2 n=70 v=70
89869 Off ch=2 n=70 v=0
89869 On ch=2 n=72 v=77
90240 Off ch=2 n=72 v=0
90240 On ch=2 n=75 v=79
90829 Off ch=2 n=75 v=0
90829 On ch=2 n=77 v=86
91200 Off ch=2 n=77 v=0
91200 On ch=2 n=82 v=88
91789 Off ch=2 n=82 v=0
91789 On ch=2 n=84 v=91
92160 Off ch=2 n=84 v=0
92749 On ch=2 n=89 v=91
93120 Off ch=2 n=89 v=0
94080 On ch=2 n=89 v=84
94560 Off ch=2 n=89 v=0
95520 On ch=2 n=84 v=74
95760 Off ch=2 n=84 v=0
95760 On ch=2 n=82 v=72
96000 Off ch=2 n=82 v=0
96000 On ch=2 n=80 v=69
96589 Off ch=2 n=80 v=0
96589 On ch=2 n=77 v=70
97920 Off ch=2 n=77 v=0
98509 On ch=2 n=72 v=71
99840 Off ch=2 n=72 v=0
145920 On ch=2 n=77 v=76
146509 Off ch=2 n=77 v=0
146509 On ch=2 n=80 v=81
146880 Off ch=2 n=80 v=0
146880 On ch=2 n=82 v=80
147469 Off ch=2 n=82 v=0
147469 On ch=2 n=84 v=85
147840 Off ch=2 n=84 v=0
148429 On ch=2 n=77 v=72
148800 Off ch=2 n=77 v=0
148800 On ch=2 n=80 v=76
149389 Off ch=2 n=80 v=0
149389 On ch=2 n=82 v=84
149760 Off ch=2 n=82 v=0
149760 On ch=2 n=83 v=82
150349 Off ch=2 n=83 v=0
150349 On ch=2 n=84 v=87
150720 Off ch=2 n=84 v=0
150720 On ch=2 n=87 v=87
151309 Off ch=2 n=87 v=0
151309 On ch=2 n=80 v=71
152640 Off ch=2 n=80 v=0
153600 On ch=2 n=77 v=70
154189 Off ch=2 n=77 v=0
154189 On ch=2 n=80 v=79
154560 Off ch=2 n=80 v=0
154560 On ch=2 n=82 v=79
155149 Off ch=2 n=82 v=0
155149 On ch=2 n=84 v=86
155520 Off ch=2 n=84 v=0
156109 On ch=2 n=77 v=72
156480 Off ch=2 n=77 v=0
156480 On ch=2 n=80 v=76
157069 Off ch=2 n=80 v=0
157069 On ch=2 n=82 v=84
157440 Off ch=2 n=82 v=0
157440 On ch=2 n=84 v=84
157920 Off ch=2 n=84 v=0
158400 On ch=2 n=77 v=68
158989 Off ch=2 n=77 v=0
158989 On ch=2 n=80 v=79
159360 Off ch=2 n=80 v=0
159360 On ch=2 n=82 v=81
159949 Off ch=2 n=82 v=0
159949 On ch=2 n=84 v=87
160320 Off ch=2 n=84 v=0
161280 On ch=2 n=77 v=69
161869 Off ch=2 n=77 v=0
161869 On ch=2 n=80 v=79
162240 Off ch=2 n=80 v=0
162240 On ch=2 n=82 v=80
162829 Off ch=2 n=82 v=0
162829 On ch=2 n=83 v=85
164160 Off ch=2 n=83 v=0
164160 On ch=2 n=84 v=80
164749 Off ch=2 n=84 v=0
164749 On ch=2 n=89 v=89
165120 Off ch=2 n=89 v=0
165709 On ch=2 n=87 v=83
167040 Off ch=2 n=87 v=0
168960 On ch=2 n=77 v=73
169549 Off ch=2 n=77 v=0
169549 On ch=2 n=80 v=79
169920 Off ch=2 n=80 v=0
169920 On ch=2 n=82 v=79
170509 Off ch=2 n=82 v=0
170509 On ch=2 n=84 v=85
170880 Off ch=2 n=84 v=0
171469 On ch=2 n=77 v=72
171840 Off ch=2 n=77 v=0
171840 On ch=2 n=80 v=76
172429 Off ch=2 n=80 v=0
172429 On ch=2 n=82 v=84
172800 Off ch=2 n=82 v=0
172800 On ch=2 n=84 v=84
173280 Off ch=2 n=84 v=0
173760 On ch=2 n=77 v=68
174349 Off ch=2 n=77 v=0
174349 On ch=2 n=80 v=79
174720 Off ch=2 n=80 v=0
174720 On ch=2 n=82 v=81
175309 Off ch=2 n=82 v=0
175309 On ch=2 n=84 v=87
175680 Off ch=2 n=84 v=0
175680 On ch=2 n=75 v=65
176269 Off ch=2 n=75 v=0
176269 On ch=2 n=76 v=70
176640 Off ch=2 n=76 v=0
176640 On ch=2 n=77 v=71
177229 Off ch=2 n=77 v=0
177229 On ch=2 n=78 v=78
177600 Off ch=2 n=78 v=0
177600 On ch=2 n=79 v=78
178080 Off ch=2 n=79 v=0
178560 On ch=2 n=80 v=80
179149 Off ch=2 n=80 v=0
179149 On ch=2 n=81 v=85
179520 Off ch=2 n=81 v=0
179520 On ch=2 n=82 v=83
180109 Off ch=2 n=82 v=0
180109 On ch=2 n=87 v=91
180480 Off ch=2 n=87 v=0
181069 On ch=2 n=77 v=70
181440 Off ch=2 n=77 v=0
181440 On ch=2 n=80 v=75
182029 Off ch=2 n=80 v=0
182029 On ch=2 n=81 v=80
182400 Off ch=2 n=81 v=0
182400 On ch=2 n=84 v=84
182880 Off ch=2 n=84 v=0
183949 On ch=2 n=89 v=89
186240 Off ch=2 n=89 v=0
192000 On ch=2 n=89 v=76
192960 Off ch=2 n=89 v=0
192960 On ch=2 n=87 v=75
193804 Off ch=2 n=87 v=0
193804 On ch=2 n=84 v=72
193920 Off ch=2 n=84 v=0
193920 On ch=2 n=83 v=72
194880 Off ch=2 n=83 v=0
194880 On ch=2 n=82 v=75
195469 Off ch=2 n=82 v=0
195469 On ch=2 n=80 v=75
196800 Off ch=2 n=80 v=0
198720 On ch=2 n=75 v=74
199309 Off ch=2 n=75 v=0
199309 On ch=2 n=77 v=79
201600 Off ch=2 n=77 v=0
207154 On ch=2 n=84 v=76
207360 Off ch=2 n=84 v=0
207360 On ch=2 n=87 v=76
208320 Off ch=2 n=87 v=0
208320 On ch=2 n=84 v=75
209280 Off ch=2 n=84 v=0
209280 On ch=2 n=83 v=74
209599 Off ch=2 n=83 v=0
209599 On ch=2 n=82 v=73
209918 Off ch=2 n=82 v=0
209918 On ch=2 n=81 v=72
210240 Off ch=2 n=81 v=0
210240 On ch=2 n=80 v=70
210829 Off ch=2 n=80 v=0
210829 On ch=2 n=75 v=67
211680 Off ch=2 n=75 v=0
212749 On ch=2 n=72 v=70
214080 Off ch=2 n=72 v=0
214669 On ch=2 n=65 v=73
216960 Off ch=2 n=65 v=0
217549 On ch=2 n=65 v=79
217920 Off ch=2 n=65 v=0
217920 On ch=2 n=68 v=78
218239 Off ch=2 n=68 v=0
218239 On ch=2 n=70 v=81
218558 Off ch=2 n=70 v=0
218558 On ch=2 n=71 v=82
218880 Off ch=2 n=71 v=0
218880 On ch=2 n=72 v=84
219840 Off ch=2 n=72 v=0
223309 On ch=2 n=63 v=78
223680 Off ch=2 n=63 v=0
223680 On ch=2 n=65 v=77
223999 Off ch=2 n=65 v=0
223999 On ch=2 n=68 v=81
224318 Off ch=2 n=68 v=0
224318 On ch=2 n=70 v=84
224640 Off ch=2 n=70 v=0
224640 On ch=2 n=71 v=84
224959 Off ch=2 n=71 v=0
224959 On ch=2 n=72 v=85
225278 Off ch=2 n=72 v=0
225278 On ch=2 n=75 v=88
225600 Off ch=2 n=75 v=0
225600 On ch=2 n=72 v=82
225919 Off ch=2 n=72 v=0
225919 On ch=2 n=71 v=78
226238 Off ch=2 n=71 v=0
226238 On ch=2 n=77 v=88
226560 Off ch=2 n=77 v=0
226560 On ch=2 n=75 v=86
226879 Off ch=2 n=75 v=0
226879 On ch=2 n=72 v=75
227198 Off ch=2 n=72 v=0
227198 On ch=2 n=71 v=71
227520 Off ch=2 n=71 v=0
227520 On ch=2 n=70 v=68
227839 Off ch=2 n=70 v=0
227839 On ch=2 n=80 v=88
228158 Off ch=2 n=80 v=0
228158 On ch=2 n=77 v=88
228480 Off ch=2 n=77 v=0
228480 On ch=2 n=75 v=82
228799 Off ch=2 n=75 v=0
228799 On ch=2 n=72 v=68
229118 Off ch=2 n=72 v=0
229118 On ch=2 n=71 v=66
229440 Off ch=2 n=71 v=0
229440 On ch=2 n=83 v=88
229759 Off ch=2 n=83 v=0
229759 On ch=2 n=82 v=88
230078 Off ch=2 n=82 v=0
230078 On ch=2 n=81 v=88
230400 Off ch=2 n=81 v=0
230400 On ch=2 n=80 v=87
230719 Off ch=2 n=80 v=0
230719 On ch=2 n=77 v=75
231038 Off ch=2 n=77 v=0
231038 On ch=2 n=75 v=67
231360 Off ch=2 n=75 v=0
231360 On ch=2 n=72 v=65
231679 Off ch=2 n=72 v=0
231679 On ch=2 n=71 v=65
231998 Off ch=2 n=71 v=0
231998 On ch=2 n=87 v=88
232320 Off ch=2 n=87 v=0
232320 On ch=2 n=84 v=88
232639 Off ch=2 n=84 v=0
232639 On ch=2 n=82 v=88
232958 Off ch=2 n=82 v=0
232958 On ch=2 n=81 v=85
233280 Off ch=2 n=81 v=0
233280 On ch=2 n=80 v=79
233599 Off ch=2 n=80 v=0
233599 On ch=2 n=76 v=65
233918 Off ch=2 n=76 v=0
233918 On ch=2 n=72 v=65
234240 Off ch=2 n=72 v=0
234240 On ch=2 n=71 v=65
236160 Off ch=2 n=71 v=0
236161 Meta TrkEnd
TrkEnd
MTrk
0 PrCh ch=1 p=0
0 Par ch=1 c=121 v=0
0 Par ch=1 c=64 v=0
0 Par ch=1 c=91 v=48
0 Par ch=1 c=10 v=51
0 Par ch=1 c=7 v=64
0 Par ch=1 c=121 v=0
0 Par ch=1 c=64 v=0
0 Par ch=1 c=91 v=48
0 Par ch=1 c=10 v=51
0 Par ch=1 c=7 v=64
0 Meta TrkName "Piano"
7680 On ch=1 n=53 v=76
7680 On ch=1 n=57 v=76
7680 On ch=1 n=64 v=76
8160 Off ch=1 n=53 v=0
8160 Off ch=1 n=57 v=0
8160 Off ch=1 n=64 v=0
9229 On ch=1 n=53 v=79
9229 On ch=1 n=57 v=79
9229 On ch=1 n=64 v=79
9600 Off ch=1 n=53 v=0
9600 Off ch=1 n=57 v=0
9600 Off ch=1 n=64 v=0
11520 On ch=1 n=46 v=73
11520 On ch=1 n=50 v=73
11520 On ch=1 n=57 v=73
12000 Off ch=1 n=46 v=0
12000 Off ch=1 n=50 v=0
12000 Off ch=1 n=57 v=0
13069 On ch=1 n=46 v=78
13069 On ch=1 n=50 v=78
13069 On ch=1 n=57 v=78
13440 Off ch=1 n=46 v=0
13440 Off ch=1 n=50 v=0
13440 Off ch=1 n=57 v=0
15360 On ch=1 n=53 v=79
15360 On ch=1 n=57 v=79
15360 On ch=1 n=64 v=79
16909 On ch=1 n=65 v=79
16909 On ch=1 n=69 v=79
16909 On ch=1 n=76 v=79
17280 Off ch=1 n=53 v=0
17280 Off ch=1 n=57 v=0
17280 Off ch=1 n=64 v=0
18240 Off ch=1 n=65 v=0
18240 Off ch=1 n=69 v=0
18240 Off ch=1 n=76 v=0
19789 On ch=1 n=53 v=79
19789 On ch=1 n=57 v=79
19789 On ch=1 n=63 v=79
20160 Off ch=1 n=53 v=0
20160 Off ch=1 n=57 v=0
20160 Off ch=1 n=63 v=0
21120 On ch=1 n=51 v=76
21120 On ch=1 n=55 v=76
21120 On ch=1 n=57 v=76
21120 On ch=1 n=62 v=76
22080 Off ch=1 n=51 v=0
22080 Off ch=1 n=55 v=0
22080 Off ch=1 n=57 v=0
22080 Off ch=1 n=62 v=0
22080 On ch=1 n=48 v=72
22080 On ch=1 n=51 v=72
22080 On ch=1 n=53 v=72
22080 On ch=1 n=57 v=72
22560 Off ch=1 n=48 v=0
22560 Off ch=1 n=51 v=0
22560 Off ch=1 n=53 v=0
22560 Off ch=1 n=57 v=0
28800 On ch=1 n=46 v=76
28800 On ch=1 n=50 v=76
28800 On ch=1 n=57 v=76
29280 Off ch=1 n=46 v=0
29280 Off ch=1 n=50 v=0
29280 Off ch=1 n=57 v=0
30720 On ch=1 n=51 v=78
30720 On ch=1 n=57 v=78
30720 On ch=1 n=62 v=78
31680 Off ch=1 n=51 v=0
31680 Off ch=1 n=57 v=0
31680 Off ch=1 n=62 v=0
32269 On ch=1 n=48 v=77
32269 On ch=1 n=51 v=77
32269 On ch=1 n=53 v=77
32269 On ch=1 n=57 v=77
32640 Off ch=1 n=48 v=0
32640 Off ch=1 n=51 v=0
32640 Off ch=1 n=53 v=0
32640 Off ch=1 n=57 v=0
35520 On ch=1 n=53 v=77
35520 On ch=1 n=57 v=77
35520 On ch=1 n=63 v=77
37440 Off ch=1 n=53 v=0
37440 Off ch=1 n=57 v=0
37440 Off ch=1 n=63 v=0
37440 On ch=1 n=51 v=76
37440 On ch=1 n=57 v=76
37440 On ch=1 n=62 v=76
37920 Off ch=1 n=51 v=0
37920 Off ch=1 n=57 v=0
37920 Off ch=1 n=62 v=0
38989 On ch=1 n=55 v=80
38989 On ch=1 n=58 v=80
38989 On ch=1 n=60 v=80
38989 On ch=1 n=64 v=80
41280 Off ch=1 n=55 v=0
41280 Off ch=1 n=58 v=0
41280 Off ch=1 n=60 v=0
41280 Off ch=1 n=64 v=0
42829 On ch=1 n=56 v=80
42829 On ch=1 n=60 v=80
42829 On ch=1 n=62 v=80
42829 On ch=1 n=67 v=80
45120 Off ch=1 n=56 v=0
45120 Off ch=1 n=60 v=0
45120 Off ch=1 n=62 v=0
45120 Off ch=1 n=67 v=0
45709 On ch=1 n=65 v=79
45709 On ch=1 n=67 v=79
45709 On ch=1 n=72 v=79
45709 On ch=1 n=48 v=77
45709 On ch=1 n=51 v=77
45709 On ch=1 n=53 v=77
45709 On ch=1 n=57 v=77
48000 Off ch=1 n=48 v=0
48000 Off ch=1 n=51 v=0
48000 Off ch=1 n=53 v=0
48000 Off ch=1 n=57 v=0
48960 Off ch=1 n=65 v=0
48960 Off ch=1 n=67 v=0
48960 Off ch=1 n=72 v=0
49920 On ch=1 n=55 v=77
49920 On ch=1 n=59 v=77
49920 On ch=1 n=65 v=77
50509 On ch=1 n=72 v=80
50509 On ch=1 n=82 v=80
50880 Off ch=1 n=72 v=0
50880 Off ch=1 n=82 v=0
51840 On ch=1 n=72 v=76
51840 On ch=1 n=82 v=76
52320 Off ch=1 n=72 v=0
52320 Off ch=1 n=82 v=0
53389 On ch=1 n=72 v=79
53389 On ch=1 n=82 v=79
53760 Off ch=1 n=72 v=0
53760 Off ch=1 n=82 v=0
53760 Off ch=1 n=55 v=0
53760 Off ch=1 n=59 v=0
53760 Off ch=1 n=65 v=0
53760 On ch=1 n=53 v=76
53760 On ch=1 n=57 v=76
53760 On ch=1 n=64 v=76
54240 Off ch=1 n=53 v=0
54240 Off ch=1 n=57 v=0
54240 Off ch=1 n=64 v=0
55309 On ch=1 n=53 v=79
55309 On ch=1 n=57 v=79
55309 On ch=1 n=64 v=79
55680 Off ch=1 n=53 v=0
55680 Off ch=1 n=57 v=0
55680 Off ch=1 n=64 v=0
57600 On ch=1 n=46 v=73
57600 On ch=1 n=50 v=73
57600 On ch=1 n=57 v=73
58080 Off ch=1 n=46 v=0
58080 Off ch=1 n=50 v=0
58080 Off ch=1 n=57 v=0
59149 On ch=1 n=46 v=78
59149 On ch=1 n=50 v=78
59149 On ch=1 n=57 v=78
59520 Off ch=1 n=46 v=0
59520 Off ch=1 n=50 v=0
59520 Off ch=1 n=57 v=0
61279 On ch=1 n=62 v=79
61440 Off ch=1 n=62 v=0
61440 On ch=1 n=53 v=79
61440 On ch=1 n=57 v=79
61440 On ch=1 n=64 v=79
63360 Off ch=1 n=53 v=0
63360 Off ch=1 n=57 v=0
63360 Off ch=1 n=64 v=0
65869 On ch=1 n=53 v=79
65869 On ch=1 n=57 v=79
65869 On ch=1 n=63 v=79
66240 Off ch=1 n=53 v=0
66240 Off ch=1 n=57 v=0
66240 Off ch=1 n=63 v=0
67200 On ch=1 n=51 v=76
67200 On ch=1 n=55 v=76
67200 On ch=1 n=57 v=76
67200 On ch=1 n=62 v=76
68160 Off ch=1 n=51 v=0
68160 Off ch=1 n=55 v=0
68160 Off ch=1 n=57 v=0
68160 Off ch=1 n=62 v=0
68160 On ch=1 n=48 v=72
68160 On ch=1 n=51 v=72
68160 On ch=1 n=53 v=72
68160 On ch=1 n=57 v=72
68640 Off ch=1 n=48 v=0
68640 Off ch=1 n=51 v=0
68640 Off ch=1 n=53 v=0
68640 Off ch=1 n=57 v=0
74880 On ch=1 n=46 v=76
74880 On ch=1 n=50 v=76
74880 On ch=1 n=57 v=76
75360 Off ch=1 n=46 v=0
75360 Off ch=1 n=50 v=0
75360 Off ch=1 n=57 v=0
76800 On ch=1 n=51 v=78
76800 On ch=1 n=57 v=78
76800 On ch=1 n=62 v=78
77760 Off ch=1 n=51 v=0
77760 Off ch=1 n=57 v=0
77760 Off ch=1 n=62 v=0
78349 On ch=1 n=48 v=77
78349 On ch=1 n=51 v=77
78349 On ch=1 n=53 v=77
78349 On ch=1 n=57 v=77
78720 Off ch=1 n=48 v=0
78720 Off ch=1 n=51 v=0
78720 Off ch=1 n=53 v=0
78720 Off ch=1 n=57 v=0
81600 On ch=1 n=53 v=77
81600 On ch=1 n=57 v=77
81600 On ch=1 n=63 v=77
83520 Off ch=1 n=53 v=0
83520 Off ch=1 n=57 v=0
83520 Off ch=1 n=63 v=0
83520 On ch=1 n=51 v=76
83520 On ch=1 n=57 v=76
83520 On ch=1 n=62 v=76
84000 Off ch=1 n=51 v=0
84000 Off ch=1 n=57 v=0
84000 Off ch=1 n=62 v=0
85069 On ch=1 n=55 v=80
85069 On ch=1 n=58 v=80
85069 On ch=1 n=60 v=80
85069 On ch=1 n=64 v=80
87360 Off ch=1 n=55 v=0
87360 Off ch=1 n=58 v=0
87360 Off ch=1 n=60 v=0
87360 Off ch=1 n=64 v=0
88909 On ch=1 n=56 v=80
88909 On ch=1 n=60 v=80
88909 On ch=1 n=62 v=80
88909 On ch=1 n=67 v=80
91200 Off ch=1 n=56 v=0
91200 Off ch=1 n=60 v=0
91200 Off ch=1 n=62 v=0
91200 Off ch=1 n=67 v=0
91789 On ch=1 n=48 v=77
91789 On ch=1 n=51 v=77
91789 On ch=1 n=53 v=77
91789 On ch=1 n=57 v=77
94080 Off ch=1 n=48 v=0
94080 Off ch=1 n=51 v=0
94080 Off ch=1 n=53 v=0
94080 Off ch=1 n=57 v=0
96000 On ch=1 n=55 v=77
96000 On ch=1 n=59 v=77
96000 On ch=1 n=65 v=77
99840 Off ch=1 n=55 v=0
99840 Off ch=1 n=59 v=0
99840 Off ch=1 n=65 v=0
99840 On ch=1 n=72 v=76
99840 On ch=1 n=53 v=76
99840 On ch=1 n=57 v=76
99840 On ch=1 n=64 v=76
100320 Off ch=1 n=53 v=0
100320 Off ch=1 n=57 v=0
100320 Off ch=1 n=64 v=0
100429 Off ch=1 n=72 v=0
100429 On ch=1 n=75 v=81
101389 Off ch=1 n=75 v=0
101389 On ch=1 n=77 v=82
101389 On ch=1 n=53 v=79
101389 On ch=1 n=57 v=79
101389 On ch=1 n=64 v=79
101760 Off ch=1 n=53 v=0
101760 Off ch=1 n=57 v=0
101760 Off ch=1 n=64 v=0
102240 Off ch=1 n=77 v=0
102240 On ch=1 n=80 v=82
102360 Off ch=1 n=80 v=0
102360 On ch=1 n=79 v=81
102480 Off ch=1 n=79 v=0
102480 On ch=1 n=77 v=78
102600 Off ch=1 n=77 v=0
102600 On ch=1 n=75 v=76
102720 Off ch=1 n=75 v=0
102720 On ch=1 n=74 v=75
102840 Off ch=1 n=74 v=0
102840 On ch=1 n=72 v=74
102960 Off ch=1 n=72 v=0
102960 On ch=1 n=71 v=73
103080 Off ch=1 n=71 v=0
103080 On ch=1 n=69 v=72
103200 Off ch=1 n=69 v=0
103200 On ch=1 n=67 v=70
103320 Off ch=1 n=67 v=0
103320 On ch=1 n=65 v=69
103440 Off ch=1 n=65 v=0
103680 On ch=1 n=46 v=73
103680 On ch=1 n=50 v=73
103680 On ch=1 n=57 v=73
104160 Off ch=1 n=46 v=0
104160 Off ch=1 n=50 v=0
104160 Off ch=1 n=57 v=0
104269 On ch=1 n=75 v=80
104640 Off ch=1 n=75 v=0
104640 On ch=1 n=72 v=74
105229 Off ch=1 n=72 v=0
105229 On ch=1 n=70 v=75
105229 On ch=1 n=46 v=78
105229 On ch=1 n=50 v=78
105229 On ch=1 n=57 v=78
105600 Off ch=1 n=70 v=0
105600 Off ch=1 n=46 v=0
105600 Off ch=1 n=50 v=0
105600 Off ch=1 n=57 v=0
105600 On ch=1 n=69 v=71
105919 Off ch=1 n=69 v=0
105919 On ch=1 n=68 v=70
106238 Off ch=1 n=68 v=0
106238 On ch=1 n=65 v=66
106560 Off ch=1 n=65 v=0
106560 On ch=1 n=63 v=65
107520 Off ch=1 n=63 v=0
107520 On ch=1 n=53 v=79
107520 On ch=1 n=57 v=79
107520 On ch=1 n=64 v=79
109069 On ch=1 n=65 v=89
109069 On ch=1 n=69 v=89
109069 On ch=1 n=76 v=89
109440 Off ch=1 n=53 v=0
109440 Off ch=1 n=57 v=0
109440 Off ch=1 n=64 v=0
110400 Off ch=1 n=65 v=0
110400 Off ch=1 n=69 v=0
110400 Off ch=1 n=76 v=0
110989 On ch=1 n=72 v=84
110989 On ch=1 n=76 v=84
110989 On ch=1 n=77 v=84
110989 On ch=1 n=81 v=84
111949 On ch=1 n=53 v=79
111949 On ch=1 n=57 v=79
111949 On ch=1 n=63 v=79
112320 Off ch=1 n=72 v=0
112320 Off ch=1 n=76 v=0
112320 Off ch=1 n=77 v=0
112320 Off ch=1 n=81 v=0
112320 Off ch=1 n=53 v=0
112320 Off ch=1 n=57 v=0
112320 Off ch=1 n=63 v=0
113280 On ch=1 n=51 v=76
113280 On ch=1 n=55 v=76
113280 On ch=1 n=57 v=76
113280 On ch=1 n=62 v=76
114240 Off ch=1 n=51 v=0
114240 Off ch=1 n=55 v=0
114240 Off ch=1 n=57 v=0
114240 Off ch=1 n=62 v=0
114240 On ch=1 n=48 v=72
114240 On ch=1 n=51 v=72
114240 On ch=1 n=53 v=72
114240 On ch=1 n=57 v=72
114720 Off ch=1 n=48 v=0
114720 Off ch=1 n=51 v=0
114720 Off ch=1 n=53 v=0
114720 Off ch=1 n=57 v=0
115789 On ch=1 n=72 v=79
116160 Off ch=1 n=72 v=0
116160 On ch=1 n=70 v=75
116749 Off ch=1 n=70 v=0
116749 On ch=1 n=68 v=76
117120 Off ch=1 n=68 v=0
117120 On ch=1 n=75 v=84
117709 Off ch=1 n=75 v=0
117709 On ch=1 n=72 v=80
117964 Off ch=1 n=72 v=0
117964 On ch=1 n=75 v=85
118080 Off ch=1 n=75 v=0
118080 On ch=1 n=77 v=85
118669 Off ch=1 n=77 v=0
118669 On ch=1 n=80 v=91
119040 Off ch=1 n=80 v=0
119040 On ch=1 n=77 v=82
119359 Off ch=1 n=77 v=0
119359 On ch=1 n=71 v=66
119678 Off ch=1 n=71 v=0
119678 On ch=1 n=70 v=65
120000 Off ch=1 n=70 v=0
120000 On ch=1 n=68 v=65
120589 Off ch=1 n=68 v=0
120589 On ch=1 n=72 v=77
120960 Off ch=1 n=72 v=0
120960 On ch=1 n=46 v=76
120960 On ch=1 n=50 v=76
120960 On ch=1 n=57 v=76
121440 Off ch=1 n=46 v=0
121440 Off ch=1 n=50 v=0
121440 Off ch=1 n=57 v=0
122880 On ch=1 n=51 v=78
122880 On ch=1 n=57 v=78
122880 On ch=1 n=62 v=78
123840 Off ch=1 n=51 v=0
123840 Off ch=1 n=57 v=0
123840 Off ch=1 n=62 v=0
124429 On ch=1 n=48 v=77
124429 On ch=1 n=51 v=77
124429 On ch=1 n=53 v=77
124429 On ch=1 n=57 v=77
124800 Off ch=1 n=48 v=0
124800 Off ch=1 n=51 v=0
124800 Off ch=1 n=53 v=0
124800 Off ch=1 n=57 v=0
127309 On ch=1 n=84 v=79
127680 Off ch=1 n=84 v=0
127680 On ch=1 n=82 v=75
127680 On ch=1 n=53 v=77
127680 On ch=1 n=57 v=77
127680 On ch=1 n=63 v=77
128640 Off ch=1 n=82 v=0
128640 On ch=1 n=80 v=73
128959 Off ch=1 n=80 v=0
128959 On ch=1 n=81 v=75
129278 Off ch=1 n=81 v=0
129278 On ch=1 n=82 v=77
129600 Off ch=1 n=82 v=0
129600 Off ch=1 n=53 v=0
129600 Off ch=1 n=57 v=0
129600 Off ch=1 n=63 v=0
129600 On ch=1 n=75 v=65
129600 On ch=1 n=51 v=76
129600 On ch=1 n=57 v=76
129600 On ch=1 n=62 v=76
130080 Off ch=1 n=51 v=0
130080 Off ch=1 n=57 v=0
130080 Off ch=1 n=62 v=0
130189 Off ch=1 n=75 v=0
130189 On ch=1 n=72 v=67
131040 Off ch=1 n=72 v=0
131149 On ch=1 n=55 v=80
131149 On ch=1 n=58 v=80
131149 On ch=1 n=60 v=80
131149 On ch=1 n=64 v=80
133440 Off ch=1 n=55 v=0
133440 Off ch=1 n=58 v=0
133440 Off ch=1 n=60 v=0
133440 Off ch=1 n=64 v=0
134989 On ch=1 n=83 v=80
134989 On ch=1 n=56 v=80
134989 On ch=1 n=60 v=80
134989 On ch=1 n=62 v=80
134989 On ch=1 n=67 v=80
135360 Off ch=1 n=83 v=0
135360 On ch=1 n=82 v=76
135679 Off ch=1 n=82 v=0
135679 On ch=1 n=80 v=74
135998 Off ch=1 n=80 v=0
135998 On ch=1 n=77 v=69
136320 Off ch=1 n=77 v=0
136320 On ch=1 n=75 v=67
136909 Off ch=1 n=75 v=0
136909 On ch=1 n=72 v=67
137280 Off ch=1 n=72 v=0
137280 Off ch=1 n=56 v=0
137280 Off ch=1 n=60 v=0
137280 Off ch=1 n=62 v=0
137280 Off ch=1 n=67 v=0
137280 On ch=1 n=71 v=65
137869 Off ch=1 n=71 v=0
137869 On ch=1 n=65 v=70
137869 On ch=1 n=67 v=70
137869 On ch=1 n=72 v=70
137869 On ch=1 n=48 v=77
137869 On ch=1 n=51 v=77
137869 On ch=1 n=53 v=77
137869 On ch=1 n=57 v=77
140160 Off ch=1 n=48 v=0
140160 Off ch=1 n=51 v=0
140160 Off ch=1 n=53 v=0
140160 Off ch=1 n=57 v=0
141120 Off ch=1 n=65 v=0
141120 Off ch=1 n=67 v=0
141120 Off ch=1 n=72 v=0
142080 On ch=1 n=55 v=77
142080 On ch=1 n=59 v=77
142080 On ch=1 n=65 v=77
142669 On ch=1 n=72 v=80
142669 On ch=1 n=82 v=80
143040 Off ch=1 n=72 v=0
143040 Off ch=1 n=82 v=0
144000 On ch=1 n=72 v=76
144000 On ch=1 n=82 v=76
144480 Off ch=1 n=72 v=0
144480 Off ch=1 n=82 v=0
145549 On ch=1 n=72 v=79
145549 On ch=1 n=82 v=79
145920 Off ch=1 n=72 v=0
145920 Off ch=1 n=82 v=0
145920 Off ch=1 n=55 v=0
145920 Off ch=1 n=59 v=0
145920 Off ch=1 n=65 v=0
145920 On ch=1 n=53 v=76
145920 On ch=1 n=57 v=76
145920 On ch=1 n=64 v=76
146400 Off ch=1 n=53 v=0
146400 Off ch=1 n=57 v=0
146400 Off ch=1 n=64 v=0
147469 On ch=1 n=53 v=79
147469 On ch=1 n=57 v=79
147469 On ch=1 n=64 v=79
147840 Off ch=1 n=53 v=0
147840 Off ch=1 n=57 v=0
147840 Off ch=1 n=64 v=0
149760 On ch=1 n=46 v=73
149760 On ch=1 n=50 v=73
149760 On ch=1 n=57 v=73
150240 Off ch=1 n=46 v=0
150240 Off ch=1 n=50 v=0
150240 Off ch=1 n=57 v=0
151309 On ch=1 n=46 v=78
151309 On ch=1 n=50 v=78
151309 On ch=1 n=57 v=78
151680 Off ch=1 n=46 v=0
151680 Off ch=1 n=50 v=0
151680 Off ch=1 n=57 v=0
153600 On ch=1 n=53 v=79
153600 On ch=1 n=57 v=79
153600 On ch=1 n=64 v=79
155149 On ch=1 n=65 v=79
155149 On ch=1 n=69 v=79
155149 On ch=1 n=76 v=79
155520 Off ch=1 n=53 v=0
155520 Off ch=1 n=57 v=0
155520 Off ch=1 n=64 v=0
156480 Off ch=1 n=65 v=0
156480 Off ch=1 n=69 v=0
156480 Off ch=1 n=76 v=0
158029 On ch=1 n=53 v=79
158029 On ch=1 n=57 v=79
158029 On ch=1 n=63 v=79
158400 Off ch=1 n=53 v=0
158400 Off ch=1 n=57 v=0
158400 Off ch=1 n=63 v=0
159360 On ch=1 n=51 v=76
159360 On ch=1 n=55 v=76
159360 On ch=1 n=57 v=76
159360 On ch=1 n=62 v=76
160320 Off ch=1 n=51 v=0
160320 Off ch=1 n=55 v=0
160320 Off ch=1 n=57 v=0
160320 Off ch=1 n=62 v=0
160320 On ch=1 n=48 v=72
160320 On ch=1 n=51 v=72
160320 On ch=1 n=53 v=72
160320 On ch=1 n=57 v=72
160800 Off ch=1 n=48 v=0
160800 Off ch=1 n=51 v=0
160800 Off ch=1 n=53 v=0
160800 Off ch=1 n=57 v=0
167040 On ch=1 n=46 v=76
167040 On ch=1 n=50 v=76
167040 On ch=1 n=57 v=76
167520 Off ch=1 n=46 v=0
167520 Off ch=1 n=50 v=0
167520 Off ch=1 n=57 v=0
168960 On ch=1 n=51 v=78
168960 On ch=1 n=57 v=78
168960 On ch=1 n=62 v=78
169920 Off ch=1 n=51 v=0
169920 Off ch=1 n=57 v=0
169920 Off ch=1 n=62 v=0
170509 On ch=1 n=48 v=77
170509 On ch=1 n=51 v=77
170509 On ch=1 n=53 v=77
170509 On ch=1 n=57 v=77
170880 Off ch=1 n=48 v=0
170880 Off ch=1 n=51 v=0
170880 Off ch=1 n=53 v=0
170880 Off ch=1 n=57 v=0
173760 On ch=1 n=53 v=77
173760 On ch=1 n=57 v=77
173760 On ch=1 n=63 v=77
175680 Off ch=1 n=53 v=0
175680 Off ch=1 n=57 v=0
175680 Off ch=1 n=63 v=0
175680 On ch=1 n=51 v=76
175680 On ch=1 n=57 v=76
175680 On ch=1 n=62 v=76
176160 Off ch=1 n=51 v=0
176160 Off ch=1 n=57 v=0
176160 Off ch=1 n=62 v=0
177229 On ch=1 n=55 v=80
177229 On ch=1 n=58 v=80
177229 On ch=1 n=60 v=80
177229 On ch=1 n=64 v=80
179520 Off ch=1 n=55 v=0
179520 Off ch=1 n=58 v=0
179520 Off ch=1 n=60 v=0
179520 Off ch=1 n=64 v=0
181069 On ch=1 n=56 v=80
181069 On ch=1 n=60 v=80
181069 On ch=1 n=62 v=80
181069 On ch=1 n=67 v=80
183360 Off ch=1 n=56 v=0
183360 Off ch=1 n=60 v=0
183360 Off ch=1 n=62 v=0
183360 Off ch=1 n=67 v=0
183949 On ch=1 n=65 v=79
183949 On ch=1 n=67 v=79
183949 On ch=1 n=72 v=79
183949 On ch=1 n=48 v=77
183949 On ch=1 n=51 v=77
183949 On ch=1 n=53 v=77
183949 On ch=1 n=57 v=77
186240 Off ch=1 n=48 v=0
186240 Off ch=1 n=51 v=0
186240 Off ch=1 n=53 v=0
186240 Off ch=1 n=57 v=0
187200 Off ch=1 n=65 v=0
187200 Off ch=1 n=67 v=0
187200 Off ch=1 n=72 v=0
188160 On ch=1 n=55 v=77
188160 On ch=1 n=59 v=77
188160 On ch=1 n=65 v=77
188749 On ch=1 n=72 v=80
188749 On ch=1 n=82 v=80
189120 Off ch=1 n=72 v=0
189120 Off ch=1 n=82 v=0
190080 On ch=1 n=72 v=76
190080 On ch=1 n=82 v=76
190560 Off ch=1 n=72 v=0
190560 Off ch=1 n=82 v=0
191629 On ch=1 n=72 v=79
191629 On ch=1 n=82 v=79
192000 Off ch=1 n=72 v=0
192000 Off ch=1 n=82 v=0
192000 Off ch=1 n=55 v=0
192000 Off ch=1 n=59 v=0
192000 Off ch=1 n=65 v=0
192000 On ch=1 n=53 v=76
192000 On ch=1 n=57 v=76
192000 On ch=1 n=64 v=76
192480 Off ch=1 n=53 v=0
192480 Off ch=1 n=57 v=0
192480 Off ch=1 n=64 v=0
193549 On ch=1 n=53 v=79
193549 On ch=1 n=57 v=79
193549 On ch=1 n=64 v=79
193920 Off ch=1 n=53 v=0
193920 Off ch=1 n=57 v=0
193920 Off ch=1 n=64 v=0
195840 On ch=1 n=46 v=73
195840 On ch=1 n=50 v=73
195840 On ch=1 n=57 v=73
196320 Off ch=1 n=46 v=0
196320 Off ch=1 n=50 v=0
196320 Off ch=1 n=57 v=0
197389 On ch=1 n=46 v=78
197389 On ch=1 n=50 v=78
197389 On ch=1 n=57 v=78
197760 Off ch=1 n=46 v=0
197760 Off ch=1 n=50 v=0
197760 Off ch=1 n=57 v=0
199680 On ch=1 n=53 v=79
199680 On ch=1 n=57 v=79
199680 On ch=1 n=64 v=79
202560 Off ch=1 n=53 v=0
202560 Off ch=1 n=57 v=0
202560 Off ch=1 n=64 v=0
204109 On ch=1 n=53 v=79
204109 On ch=1 n=57 v=79
204109 On ch=1 n=63 v=79
204480 Off ch=1 n=53 v=0
204480 Off ch=1 n=57 v=0
204480 Off ch=1 n=63 v=0
205440 On ch=1 n=51 v=76
205440 On ch=1 n=55 v=76
205440 On ch=1 n=57 v=76
205440 On ch=1 n=62 v=76
206400 Off ch=1 n=51 v=0
206400 Off ch=1 n=55 v=0
206400 Off ch=1 n=57 v=0
206400 Off ch=1 n=62 v=0
206400 On ch=1 n=48 v=72
206400 On ch=1 n=51 v=72
206400 On ch=1 n=53 v=72
206400 On ch=1 n=57 v=72
206880 Off ch=1 n=48 v=0
206880 Off ch=1 n=51 v=0
206880 Off ch=1 n=53 v=0
206880 Off ch=1 n=57 v=0
213120 On ch=1 n=46 v=76
213120 On ch=1 n=50 v=76
213120 On ch=1 n=57 v=76
213600 Off ch=1 n=46 v=0
213600 Off ch=1 n=50 v=0
213600 Off ch=1 n=57 v=0
215040 On ch=1 n=51 v=78
215040 On ch=1 n=57 v=78
215040 On ch=1 n=62 v=78
216000 Off ch=1 n=51 v=0
216000 Off ch=1 n=57 v=0
216000 Off ch=1 n=62 v=0
216589 On ch=1 n=48 v=77
216589 On ch=1 n=51 v=77
216589 On ch=1 n=53 v=77
216589 On ch=1 n=57 v=77
216960 Off ch=1 n=48 v=0
216960 Off ch=1 n=51 v=0
216960 Off ch=1 n=53 v=0
216960 Off ch=1 n=57 v=0
219840 On ch=1 n=53 v=77
219840 On ch=1 n=57 v=77
219840 On ch=1 n=63 v=77
221760 Off ch=1 n=53 v=0
221760 Off ch=1 n=57 v=0
221760 Off ch=1 n=63 v=0
221760 On ch=1 n=51 v=76
221760 On ch=1 n=57 v=76
221760 On ch=1 n=62 v=76
222240 Off ch=1 n=51 v=0
222240 Off ch=1 n=57 v=0
222240 Off ch=1 n=62 v=0
223309 On ch=1 n=55 v=80
223309 On ch=1 n=58 v=80
223309 On ch=1 n=60 v=80
223309 On ch=1 n=64 v=80
225600 Off ch=1 n=55 v=0
225600 Off ch=1 n=58 v=0
225600 Off ch=1 n=60 v=0
225600 Off ch=1 n=64 v=0
227149 On ch=1 n=56 v=80
227149 On ch=1 n=60 v=80
227149 On ch=1 n=62 v=80
227149 On ch=1 n=67 v=80
229440 Off ch=1 n=56 v=0
229440 Off ch=1 n=60 v=0
229440 Off ch=1 n=62 v=0
229440 Off ch=1 n=67 v=0
230029 On ch=1 n=48 v=77
230029 On ch=1 n=51 v=77
230029 On ch=1 n=53 v=77
230029 On ch=1 n=57 v=77
232320 Off ch=1 n=48 v=0
232320 Off ch=1 n=51 v=0
232320 Off ch=1 n=53 v=0
232320 Off ch=1 n=57 v=0
234240 On ch=1 n=55 v=77
234240 On ch=1 n=59 v=77
234240 On ch=1 n=65 v=77
234829 On ch=1 n=72 v=79
234829 On ch=1 n=82 v=79
235200 Off ch=1 n=72 v=0
235200 Off ch=1 n=82 v=0
236160 On ch=1 n=72 v=76
236160 On ch=1 n=82 v=76
236640 Off ch=1 n=72 v=0
236640 Off ch=1 n=82 v=0
237709 On ch=1 n=72 v=79
237709 On ch=1 n=82 v=79
238080 Off ch=1 n=72 v=0
238080 Off ch=1 n=82 v=0
238080 Off ch=1 n=55 v=0
238080 Off ch=1 n=59 v=0
238080 Off ch=1 n=65 v=0
238080 On ch=1 n=53 v=76
238080 On ch=1 n=57 v=76
238080 On ch=1 n=64 v=76
238560 Off ch=1 n=53 v=0
238560 Off ch=1 n=57 v=0
238560 Off ch=1 n=64 v=0
239629 On ch=1 n=53 v=79
239629 On ch=1 n=57 v=79
239629 On ch=1 n=64 v=79
240000 Off ch=1 n=53 v=0
240000 Off ch=1 n=57 v=0
240000 Off ch=1 n=64 v=0
241920 On ch=1 n=46 v=73
241920 On ch=1 n=50 v=73
241920 On ch=1 n=57 v=73
242400 Off ch=1 n=46 v=0
242400 Off ch=1 n=50 v=0
242400 Off ch=1 n=57 v=0
243469 On ch=1 n=46 v=78
243469 On ch=1 n=50 v=78
243469 On ch=1 n=57 v=78
243840 Off ch=1 n=46 v=0
243840 Off ch=1 n=50 v=0
243840 Off ch=1 n=57 v=0
245760 On ch=1 n=53 v=79
245760 On ch=1 n=57 v=79
245760 On ch=1 n=64 v=79
248640 Off ch=1 n=53 v=0
248640 Off ch=1 n=57 v=0
248640 Off ch=1 n=64 v=0
250189 On ch=1 n=53 v=79
250189 On ch=1 n=57 v=79
250189 On ch=1 n=63 v=79
250560 Off ch=1 n=53 v=0
250560 Off ch=1 n=57 v=0
250560 Off ch=1 n=63 v=0
251520 On ch=1 n=51 v=76
251520 On ch=1 n=55 v=76
251520 On ch=1 n=57 v=76
251520 On ch=1 n=62 v=76
252480 Off ch=1 n=51 v=0
252480 Off ch=1 n=55 v=0
252480 Off ch=1 n=57 v=0
252480 Off ch=1 n=62 v=0
252480 On ch=1 n=48 v=72
252480 On ch=1 n=51 v=72
252480 On ch=1 n=53 v=72
252480 On ch=1 n=57 v=72
252960 Off ch=1 n=48 v=0
252960 Off ch=1 n=51 v=0
252960 Off ch=1 n=53 v=0
252960 Off ch=1 n=57 v=0
259200 On ch=1 n=46 v=76
259200 On ch=1 n=50 v=76
259200 On ch=1 n=57 v=76
259680 Off ch=1 n=46 v=0
259680 Off ch=1 n=50 v=0
259680 Off ch=1 n=57 v=0
261120 On ch=1 n=51 v=78
261120 On ch=1 n=57 v=78
261120 On ch=1 n=62 v=78
262080 Off ch=1 n=51 v=0
262080 Off ch=1 n=57 v=0
262080 Off ch=1 n=62 v=0
262669 On ch=1 n=48 v=77
262669 On ch=1 n=51 v=77
262669 On ch=1 n=53 v=77
262669 On ch=1 n=57 v=77
263040 Off ch=1 n=48 v=0
263040 Off ch=1 n=51 v=0
263040 Off ch=1 n=53 v=0
263040 Off ch=1 n=57 v=0
265920 On ch=1 n=53 v=77
265920 On ch=1 n=57 v=77
265920 On ch=1 n=63 v=77
267840 Off ch=1 n=53 v=0
267840 Off ch=1 n=57 v=0
267840 Off ch=1 n=63 v=0
267840 On ch=1 n=51 v=76
267840 On ch=1 n=57 v=76
267840 On ch=1 n=62 v=76
268320 Off ch=1 n=51 v=0
268320 Off ch=1 n=57 v=0
268320 Off ch=1 n=62 v=0
269389 On ch=1 n=55 v=80
269389 On ch=1 n=58 v=80
269389 On ch=1 n=60 v=80
269389 On ch=1 n=64 v=80
271680 Off ch=1 n=55 v=0
271680 Off ch=1 n=58 v=0
271680 Off ch=1 n=60 v=0
271680 Off ch=1 n=64 v=0
273229 On ch=1 n=56 v=80
273229 On ch=1 n=60 v=80
273229 On ch=1 n=62 v=80
273229 On ch=1 n=67 v=80
275520 Off ch=1 n=56 v=0
275520 Off ch=1 n=60 v=0
275520 Off ch=1 n=62 v=0
275520 Off ch=1 n=67 v=0
276109 On ch=1 n=48 v=77
276109 On ch=1 n=51 v=77
276109 On ch=1 n=53 v=77
276109 On ch=1 n=57 v=77
278400 Off ch=1 n=48 v=0
278400 Off ch=1 n=51 v=0
278400 Off ch=1 n=53 v=0
278400 Off ch=1 n=57 v=0
280320 On ch=1 n=55 v=77
280320 On ch=1 n=59 v=77
280320 On ch=1 n=65 v=77
280909 On ch=1 n=72 v=79
280909 On ch=1 n=82 v=79
281280 Off ch=1 n=72 v=0
281280 Off ch=1 n=82 v=0
282240 On ch=1 n=72 v=76
282240 On ch=1 n=82 v=76
282720 Off ch=1 n=72 v=0
282720 Off ch=1 n=82 v=0
283789 On ch=1 n=72 v=79
283789 On ch=1 n=82 v=79
284160 Off ch=1 n=72 v=0
284160 Off ch=1 n=82 v=0
284160 Off ch=1 n=55 v=0
284160 Off ch=1 n=59 v=0
284160 Off ch=1 n=65 v=0
284161 Meta TrkEnd
TrkEnd
MTrk
0 PrCh ch=3 p=32
0 Par ch=3 c=121 v=0
0 Par ch=3 c=64 v=0
0 Par ch=3 c=91 v=72
0 Par ch=3 c=10 v=95
0 Par ch=3 c=7 v=90
0 Meta TrkName "Upright Bass"
7680 On ch=3 n=52 v=76
8640 Off ch=3 n=52 v=0
9229 On ch=3 n=52 v=79
9600 Off ch=3 n=52 v=0
9600 On ch=3 n=52 v=76
10189 Off ch=3 n=52 v=0
10189 On ch=3 n=48 v=75
12109 Off ch=3 n=48 v=0
12109 On ch=3 n=46 v=77
13440 Off ch=3 n=46 v=0
13440 On ch=3 n=39 v=72
15949 Off ch=3 n=39 v=0
15949 On ch=3 n=41 v=79
17280 Off ch=3 n=41 v=0
17280 On ch=3 n=48 v=79
18829 Off ch=3 n=48 v=0
18829 On ch=3 n=53 v=84
19789 Off ch=3 n=53 v=0
19789 On ch=3 n=53 v=82
20160 Off ch=3 n=53 v=0
20160 On ch=3 n=50 v=75
20749 Off ch=3 n=50 v=0
20749 On ch=3 n=45 v=73
21120 Off ch=3 n=45 v=0
21120 On ch=3 n=46 v=72
22080 Off ch=3 n=46 v=0
22080 On ch=3 n=48 v=76
22669 Off ch=3 n=48 v=0
22669 On ch=3 n=43 v=74
23040 Off ch=3 n=43 v=0
23040 Par ch=3 c=101 v=0
23040 Par ch=3 c=100 v=0
23040 Par ch=3 c=6 v=2
23040 Par ch=3 c=38 v=0
23040 Pb ch=3 v=8192
23040 On ch=3 n=44 v=73
23366 Pb ch=3 v=8192
23381 Pb ch=3 v=8601
23396 Pb ch=3 v=9011
23411 Pb ch=3 v=9420
23426 Pb ch=3 v=9830
23441 Pb ch=3 v=10240
23456 Pb ch=3 v=10649
23471 Pb ch=3 v=11059
23486 Pb ch=3 v=11468
23501 Pb ch=3 v=11878
23516 Pb ch=3 v=12288
23531 Pb ch=3 v=12697
23546 Pb ch=3 v=13107
23561 Pb ch=3 v=13516
23576 Pb ch=3 v=13926
23591 Pb ch=3 v=14336
23606 Pb ch=3 v=14745
23621 Pb ch=3 v=15155
23636 Pb ch=3 v=15564
23651 Pb ch=3 v=15974
23666 Pb ch=3 v=16383
24000 On ch=3 n=46 v=76
24015 Pb ch=3 v=8192
24019 Off ch=3 n=44 v=0
24911 Off ch=3 n=46 v=0
24960 On ch=3 n=43 v=74
26880 Off ch=3 n=43 v=0
26880 On ch=3 n=41 v=75
27840 Off ch=3 n=41 v=0
27840 On ch=3 n=38 v=74
28800 Off ch=3 n=38 v=0
28800 On ch=3 n=34 v=73
29760 Off ch=3 n=34 v=0
29760 On ch=3 n=28 v=71
30720 Off ch=3 n=28 v=0
30720 On ch=3 n=29 v=74
32640 Off ch=3 n=29 v=0
32640 On ch=3 n=36 v=78
34560 Off ch=3 n=36 v=0
34560 On ch=3 n=41 v=78
35520 Off ch=3 n=41 v=0
35520 On ch=3 n=36 v=75
36480 Off ch=3 n=36 v=0
36480 On ch=3 n=33 v=74
37440 Off ch=3 n=33 v=0
37440 On ch=3 n=34 v=75
38400 Off ch=3 n=34 v=0
38400 On ch=3 n=36 v=77
39949 Off ch=3 n=36 v=0
39949 On ch=3 n=36 v=84
40320 Off ch=3 n=36 v=0
40320 On ch=3 n=40 v=82
41280 Off ch=3 n=40 v=0
41280 On ch=3 n=45 v=82
42240 Off ch=3 n=45 v=0
42240 On ch=3 n=46 v=81
43789 Off ch=3 n=46 v=0
43789 On ch=3 n=44 v=84
44160 Off ch=3 n=44 v=0
44160 On ch=3 n=50 v=85
45120 Off ch=3 n=50 v=0
45120 On ch=3 n=53 v=84
46080 Off ch=3 n=53 v=0
46080 On ch=3 n=41 v=71
48000 Off ch=3 n=41 v=0
48000 On ch=3 n=45 v=76
48960 Off ch=3 n=45 v=0
48960 On ch=3 n=48 v=81
49549 Off ch=3 n=48 v=0
49549 On ch=3 n=36 v=74
51469 Off ch=3 n=36 v=0
51469 On ch=3 n=36 v=81
51840 Off ch=3 n=36 v=0
51840 On ch=3 n=43 v=81
52800 Off ch=3 n=43 v=0
52800 On ch=3 n=36 v=73
53760 Off ch=3 n=36 v=0
53760 On ch=3 n=41 v=78
55680 Off ch=3 n=41 v=0
55680 On ch=3 n=33 v=74
57229 Off ch=3 n=33 v=0
57229 On ch=3 n=34 v=79
59149 Off ch=3 n=34 v=0
59149 On ch=3 n=29 v=82
59520 Off ch=3 n=29 v=0
59520 On ch=3 n=38 v=82
60480 Off ch=3 n=38 v=0
60480 On ch=3 n=41 v=83
61069 Off ch=3 n=41 v=0
61069 On ch=3 n=29 v=75
62989 Off ch=3 n=29 v=0
62989 On ch=3 n=33 v=83
63360 Off ch=3 n=33 v=0
63360 On ch=3 n=36 v=80
64320 Off ch=3 n=36 v=0
64320 On ch=3 n=40 v=83
64909 Off ch=3 n=40 v=0
64909 On ch=3 n=41 v=84
67200 Off ch=3 n=41 v=0
67200 On ch=3 n=39 v=76
68749 Off ch=3 n=39 v=0
68749 On ch=3 n=33 v=81
69120 Off ch=3 n=33 v=0
69120 On ch=3 n=34 v=77
70080 Off ch=3 n=34 v=0
70080 On ch=3 n=38 v=78
71040 Off ch=3 n=38 v=0
71040 On ch=3 n=41 v=79
72000 Off ch=3 n=41 v=0
72000 On ch=3 n=45 v=84
72589 Off ch=3 n=45 v=0
72589 On ch=3 n=46 v=86
73920 Off ch=3 n=46 v=0
73920 On ch=3 n=34 v=71
74880 Off ch=3 n=34 v=0
75469 On ch=3 n=40 v=79
76800 Off ch=3 n=40 v=0
76800 On ch=3 n=41 v=77
78720 Off ch=3 n=41 v=0
78720 On ch=3 n=36 v=75
80640 Off ch=3 n=36 v=0
81229 On ch=3 n=53 v=83
81600 Off ch=3 n=53 v=0
81600 On ch=3 n=41 v=73
82560 Off ch=3 n=41 v=0
82560 On ch=3 n=40 v=74
83520 Off ch=3 n=40 v=0
83520 On ch=3 n=39 v=74
84480 Off ch=3 n=39 v=0
84480 On ch=3 n=36 v=73
86400 Off ch=3 n=36 v=0
86400 On ch=3 n=38 v=76
87360 Off ch=3 n=38 v=0
87360 On ch=3 n=31 v=76
87949 Off ch=3 n=31 v=0
87949 On ch=3 n=41 v=85
89280 Off ch=3 n=41 v=0
89280 On ch=3 n=42 v=82
89869 Off ch=3 n=42 v=0
89869 On ch=3 n=43 v=84
91200 Off ch=3 n=43 v=0
91200 On ch=3 n=44 v=81
91789 Off ch=3 n=44 v=0
91789 On ch=3 n=36 v=76
93120 Off ch=3 n=36 v=0
93120 On ch=3 n=37 v=77
93709 Off ch=3 n=37 v=0
93709 On ch=3 n=38 v=80
95040 Off ch=3 n=38 v=0
95040 On ch=3 n=39 v=77
95629 Off ch=3 n=39 v=0
95629 On ch=3 n=36 v=77
96000 Off ch=3 n=36 v=0
96000 On ch=3 n=48 v=87
96589 Off ch=3 n=48 v=0
96589 On ch=3 n=48 v=89
96960 Off ch=3 n=48 v=0
97920 On ch=3 n=48 v=81
98629 Off ch=3 n=48 v=0
98629 On ch=3 n=43 v=75
99270 Off ch=3 n=43 v=0
99270 On ch=3 n=38 v=71
99840 Off ch=3 n=38 v=0
99840 On ch=3 n=52 v=87
100800 Off ch=3 n=52 v=0
101389 On ch=3 n=52 v=86
101760 Off ch=3 n=52 v=0
101760 On ch=3 n=52 v=81
102349 Off ch=3 n=52 v=0
102349 On ch=3 n=48 v=77
104269 Off ch=3 n=48 v=0
104269 On ch=3 n=46 v=77
105600 Off ch=3 n=46 v=0
105600 On ch=3 n=39 v=72
108109 Off ch=3 n=39 v=0
108109 On ch=3 n=41 v=79
109440 Off ch=3 n=41 v=0
109440 On ch=3 n=48 v=79
110989 Off ch=3 n=48 v=0
110989 On ch=3 n=53 v=84
111949 Off ch=3 n=53 v=0
111949 On ch=3 n=53 v=82
112320 Off ch=3 n=53 v=0
112320 On ch=3 n=50 v=75
112909 Off ch=3 n=50 v=0
112909 On ch=3 n=45 v=73
113280 Off ch=3 n=45 v=0
113280 On ch=3 n=46 v=72
114240 Off ch=3 n=46 v=0
114240 On ch=3 n=48 v=76
114829 Off ch=3 n=48 v=0
114829 On ch=3 n=43 v=74
115200 Off ch=3 n=43 v=0
115200 Par ch=3 c=101 v=0
115200 Par ch=3 c=100 v=0
115200 Par ch=3 c=6 v=2
115200 Par ch=3 c=38 v=0
115200 Pb ch=3 v=8192
115200 On ch=3 n=44 v=73
115526 Pb ch=3 v=8192
115541 Pb ch=3 v=8601
115556 Pb ch=3 v=9011
115571 Pb ch=3 v=9420
115586 Pb ch=3 v=9830
115601 Pb ch=3 v=10240
115616 Pb ch=3 v=10649
115631 Pb ch=3 v=11059
115646 Pb ch=3 v=11468
115661 Pb ch=3 v=11878
115676 Pb ch=3 v=12288
115691 Pb ch=3 v=12697
115706 Pb ch=3 v=13107
115721 Pb ch=3 v=13516
115736 Pb ch=3 v=13926
115751 Pb ch=3 v=14336
115766 Pb ch=3 v=14745
115781 Pb ch=3 v=15155
115796 Pb ch=3 v=15564
115811 Pb ch=3 v=15974
115826 Pb ch=3 v=16383
116160 On ch=3 n=46 v=76
116175 Pb ch=3 v=8192
116179 Off ch=3 n=44 v=0
117071 Off ch=3 n=46 v=0
117120 On ch=3 n=43 v=74
119040 Off ch=3 n=43 v=0
119040 On ch=3 n=41 v=75
120000 Off ch=3 n=41 v=0
120000 On ch=3 n=38 v=74
120960 Off ch=3 n=38 v=0
120960 On ch=3 n=34 v=73
121920 Off ch=3 n=34 v=0
121920 On ch=3 n=28 v=71
122880 Off ch=3 n=28 v=0
122880 On ch=3 n=29 v=74
124800 Off ch=3 n=29 v=0
124800 On ch=3 n=36 v=78
126720 Off ch=3 n=36 v=0
126720 On ch=3 n=41 v=78
127680 Off ch=3 n=41 v=0
127680 On ch=3 n=36 v=75
128640 Off ch=3 n=36 v=0
128640 On ch=3 n=33 v=74
129600 Off ch=3 n=33 v=0
129600 On ch=3 n=34 v=75
130560 Off ch=3 n=34 v=0
130560 On ch=3 n=36 v=77
132109 Off ch=3 n=36 v=0
132109 On ch=3 n=36 v=84
132480 Off ch=3 n=36 v=0
132480 On ch=3 n=40 v=82
133440 Off ch=3 n=40 v=0
133440 On ch=3 n=45 v=82
134400 Off ch=3 n=45 v=0
134400 On ch=3 n=46 v=81
135949 Off ch=3 n=46 v=0
135949 On ch=3 n=44 v=84
136320 Off ch=3 n=44 v=0
136320 On ch=3 n=50 v=85
137280 Off ch=3 n=50 v=0
137280 On ch=3 n=53 v=84
138240 Off ch=3 n=53 v=0
138240 On ch=3 n=41 v=71
140160 Off ch=3 n=41 v=0
140160 On ch=3 n=45 v=76
141120 Off ch=3 n=45 v=0
141120 On ch=3 n=48 v=81
141709 Off ch=3 n=48 v=0
141709 On ch=3 n=36 v=74
143629 Off ch=3 n=36 v=0
143629 On ch=3 n=36 v=81
144000 Off ch=3 n=36 v=0
144000 On ch=3 n=43 v=81
144960 Off ch=3 n=43 v=0
144960 On ch=3 n=36 v=73
145920 Off ch=3 n=36 v=0
145920 On ch=3 n=41 v=78
147840 Off ch=3 n=41 v=0
147840 On ch=3 n=33 v=74
149389 Off ch=3 n=33 v=0
149389 On ch=3 n=34 v=79
151309 Off ch=3 n=34 v=0
151309 On ch=3 n=29 v=82
151680 Off ch=3 n=29 v=0
151680 On ch=3 n=38 v=82
152640 Off ch=3 n=38 v=0
152640 On ch=3 n=41 v=83
153229 Off ch=3 n=41 v=0
153229 On ch=3 n=29 v=75
155149 Off ch=3 n=29 v=0
155149 On ch=3 n=33 v=83
155520 Off ch=3 n=33 v=0
155520 On ch=3 n=36 v=80
156480 Off ch=3 n=36 v=0
156480 On ch=3 n=40 v=83
157069 Off ch=3 n=40 v=0
157069 On ch=3 n=41 v=84
159360 Off ch=3 n=41 v=0
159360 On ch=3 n=39 v=76
160909 Off ch=3 n=39 v=0
160909 On ch=3 n=33 v=81
161280 Off ch=3 n=33 v=0
161280 On ch=3 n=34 v=77
162240 Off ch=3 n=34 v=0
162240 On ch=3 n=38 v=78
163200 Off ch=3 n=38 v=0
163200 On ch=3 n=41 v=79
164160 Off ch=3 n=41 v=0
164160 On ch=3 n=45 v=84
164749 Off ch=3 n=45 v=0
164749 On ch=3 n=46 v=86
166080 Off ch=3 n=46 v=0
166080 On ch=3 n=34 v=71
167040 Off ch=3 n=34 v=0
167629 On ch=3 n=40 v=79
168960 Off ch=3 n=40 v=0
168960 On ch=3 n=41 v=77
170880 Off ch=3 n=41 v=0
170880 On ch=3 n=36 v=75
172800 Off ch=3 n=36 v=0
173389 On ch=3 n=53 v=83
173760 Off ch=3 n=53 v=0
173760 On ch=3 n=41 v=73
174720 Off ch=3 n=41 v=0
174720 On ch=3 n=40 v=74
175680 Off ch=3 n=40 v=0
175680 On ch=3 n=39 v=74
176640 Off ch=3 n=39 v=0
176640 On ch=3 n=36 v=73
178560 Off ch=3 n=36 v=0
178560 On ch=3 n=38 v=76
179520 Off ch=3 n=38 v=0
179520 On ch=3 n=31 v=76
180109 Off ch=3 n=31 v=0
180109 On ch=3 n=41 v=85
181440 Off ch=3 n=41 v=0
181440 On ch=3 n=42 v=82
182029 Off ch=3 n=42 v=0
182029 On ch=3 n=43 v=84
183360 Off ch=3 n=43 v=0
183360 On ch=3 n=44 v=81
183949 Off ch=3 n=44 v=0
183949 On ch=3 n=36 v=76
185280 Off ch=3 n=36 v=0
185280 On ch=3 n=37 v=77
185869 Off ch=3 n=37 v=0
185869 On ch=3 n=38 v=80
187200 Off ch=3 n=38 v=0
187200 On ch=3 n=39 v=77
187789 Off ch=3 n=39 v=0
187789 On ch=3 n=36 v=77
188160 Off ch=3 n=36 v=0
188160 On ch=3 n=48 v=87
188749 Off ch=3 n=48 v=0
188749 On ch=3 n=48 v=89
189120 Off ch=3 n=48 v=0
190080 On ch=3 n=48 v=81
190789 Off ch=3 n=48 v=0
190789 On ch=3 n=43 v=75
191430 Off ch=3 n=43 v=0
191430 On ch=3 n=38 v=71
192000 Off ch=3 n=38 v=0
192000 On ch=3 n=41 v=75
193920 Off ch=3 n=41 v=0
193920 On ch=3 n=33 v=72
195469 Off ch=3 n=33 v=0
195469 On ch=3 n=34 v=78
197389 Off ch=3 n=34 v=0
197389 On ch=3 n=29 v=82
197760 Off ch=3 n=29 v=0
197760 On ch=3 n=38 v=82
198720 Off ch=3 n=38 v=0
198720 On ch=3 n=41 v=83
199309 Off ch=3 n=41 v=0
199309 On ch=3 n=29 v=75
201229 Off ch=3 n=29 v=0
201229 On ch=3 n=33 v=83
201600 Off ch=3 n=33 v=0
201600 On ch=3 n=36 v=80
202560 Off ch=3 n=36 v=0
202560 On ch=3 n=40 v=83
203149 Off ch=3 n=40 v=0
203149 On ch=3 n=41 v=84
205440 Off ch=3 n=41 v=0
205440 On ch=3 n=39 v=76
206989 Off ch=3 n=39 v=0
206989 On ch=3 n=33 v=81
207360 Off ch=3 n=33 v=0
207360 On ch=3 n=34 v=77
208320 Off ch=3 n=34 v=0
208320 On ch=3 n=38 v=78
209280 Off ch=3 n=38 v=0
209280 On ch=3 n=41 v=79
210240 Off ch=3 n=41 v=0
210240 On ch=3 n=45 v=84
210829 Off ch=3 n=45 v=0
210829 On ch=3 n=46 v=86
212160 Off ch=3 n=46 v=0
212160 On ch=3 n=34 v=71
213120 Off ch=3 n=34 v=0
213709 On ch=3 n=40 v=79
215040 Off ch=3 n=40 v=0
215040 On ch=3 n=41 v=77
216960 Off ch=3 n=41 v=0
216960 On ch=3 n=36 v=75
218880 Off ch=3 n=36 v=0
219469 On ch=3 n=53 v=83
219840 Off ch=3 n=53 v=0
219840 On ch=3 n=41 v=73
220800 Off ch=3 n=41 v=0
220800 On ch=3 n=40 v=74
221760 Off ch=3 n=40 v=0
221760 On ch=3 n=39 v=74
222720 Off ch=3 n=39 v=0
222720 On ch=3 n=36 v=73
224640 Off ch=3 n=36 v=0
224640 On ch=3 n=38 v=76
225600 Off ch=3 n=38 v=0
225600 On ch=3 n=31 v=76
226189 Off ch=3 n=31 v=0
226189 On ch=3 n=41 v=85
227520 Off ch=3 n=41 v=0
227520 On ch=3 n=42 v=82
228109 Off ch=3 n=42 v=0
228109 On ch=3 n=43 v=84
229440 Off ch=3 n=43 v=0
229440 On ch=3 n=44 v=81
230029 Off ch=3 n=44 v=0
230029 On ch=3 n=36 v=76
232320 Off ch=3 n=36 v=0
232320 On ch=3 n=45 v=78
233280 Off ch=3 n=45 v=0
233280 On ch=3 n=48 v=82
233869 Off ch=3 n=48 v=0
233869 On ch=3 n=36 v=75
235789 Off ch=3 n=36 v=0
235789 On ch=3 n=36 v=81
236160 Off ch=3 n=36 v=0
236160 On ch=3 n=43 v=81
237120 Off ch=3 n=43 v=0
237120 On ch=3 n=36 v=73
238080 Off ch=3 n=36 v=0
238080 On ch=3 n=41 v=78
240000 Off ch=3 n=41 v=0
240000 On ch=3 n=33 v=74
241549 Off ch=3 n=33 v=0
241549 On ch=3 n=34 v=79
243469 Off ch=3 n=34 v=0
243469 On ch=3 n=29 v=82
243840 Off ch=3 n=29 v=0
243840 On ch=3 n=38 v=82
244800 Off ch=3 n=38 v=0
244800 On ch=3 n=41 v=83
245389 Off ch=3 n=41 v=0
245389 On ch=3 n=29 v=75
247309 Off ch=3 n=29 v=0
247309 On ch=3 n=33 v=83
247680 Off ch=3 n=33 v=0
247680 On ch=3 n=36 v=80
248640 Off ch=3 n=36 v=0
248640 On ch=3 n=40 v=83
249229 Off ch=3 n=40 v=0
249229 On ch=3 n=41 v=84
251520 Off ch=3 n=41 v=0
251520 On ch=3 n=39 v=76
253069 Off ch=3 n=39 v=0
253069 On ch=3 n=33 v=81
253440 Off ch=3 n=33 v=0
253440 On ch=3 n=34 v=77
254400 Off ch=3 n=34 v=0
254400 On ch=3 n=38 v=78
255360 Off ch=3 n=38 v=0
255360 On ch=3 n=41 v=79
256320 Off ch=3 n=41 v=0
256320 On ch=3 n=45 v=84
256909 Off ch=3 n=45 v=0
256909 On ch=3 n=46 v=86
258240 Off ch=3 n=46 v=0
258240 On ch=3 n=34 v=71
259200 Off ch=3 n=34 v=0
259789 On ch=3 n=40 v=79
261120 Off ch=3 n=40 v=0
261120 On ch=3 n=41 v=77
263040 Off ch=3 n=41 v=0
263040 On ch=3 n=36 v=75
264960 Off ch=3 n=36 v=0
265549 On ch=3 n=53 v=83
265920 Off ch=3 n=53 v=0
265920 On ch=3 n=41 v=73
266880 Off ch=3 n=41 v=0
266880 On ch=3 n=40 v=74
267840 Off ch=3 n=40 v=0
267840 On ch=3 n=39 v=74
268800 Off ch=3 n=39 v=0
268800 On ch=3 n=36 v=73
270720 Off ch=3 n=36 v=0
270720 On ch=3 n=38 v=76
271680 Off ch=3 n=38 v=0
271680 On ch=3 n=31 v=76
272269 Off ch=3 n=31 v=0
272269 On ch=3 n=41 v=85
273600 Off ch=3 n=41 v=0
273600 On ch=3 n=42 v=82
274189 Off ch=3 n=42 v=0
274189 On ch=3 n=43 v=84
275520 Off ch=3 n=43 v=0
275520 On ch=3 n=44 v=81
276109 Off ch=3 n=44 v=0
276109 On ch=3 n=36 v=76
278400 Off ch=3 n=36 v=0
278400 On ch=3 n=45 v=78
279360 Off ch=3 n=45 v=0
279360 On ch=3 n=48 v=82
279949 Off ch=3 n=48 v=0
279949 On ch=3 n=36 v=75
281869 Off ch=3 n=36 v=0
281869 On ch=3 n=36 v=81
282240 Off ch=3 n=36 v=0
282240 On ch=3 n=43 v=81
283200 Off ch=3 n=43 v=0
283200 On ch=3 n=36 v=73
284160 Off ch=3 n=36 v=0
284161 Meta TrkEnd
TrkEnd
